<svg xmlns="http://www.w3.org/2000/svg" xmlns:xlink="http://www.w3.org/1999/xlink" width="174" zoomAndPan="magnify" viewBox="0 0 130.5 30.000001" height="40" preserveAspectRatio="xMidYMid meet" version="1.0"><defs><g/><clipPath id="251bc40965"><path d="M 1.863281 0 L 128.152344 0 L 128.152344 29.03125 L 1.863281 29.03125 Z M 1.863281 0 " clip-rule="nonzero"/></clipPath><clipPath id="a1c24dc320"><path d="M 1.863281 6 L 71 6 L 71 23 L 1.863281 23 Z M 1.863281 6 " clip-rule="nonzero"/></clipPath></defs><g clip-path="url(#251bc40965)"><path fill="#ffffff" d="M 1.863281 0 L 128.152344 0 L 128.152344 29.03125 L 1.863281 29.03125 Z M 1.863281 0 " fill-opacity="1" fill-rule="nonzero"/><path fill="#ffffff" d="M 1.863281 0 L 128.152344 0 L 128.152344 29.03125 L 1.863281 29.03125 Z M 1.863281 0 " fill-opacity="1" fill-rule="nonzero"/></g><g fill="#ffa7e4" fill-opacity="1"><g transform="translate(70.394013, 21.425316)"><g><path d="M 6.96875 -5.21875 L 10.734375 -5.21875 C 10.785156 -5.21875 10.832031 -5.191406 10.875 -5.140625 C 10.925781 -5.085938 10.953125 -5.035156 10.953125 -4.984375 L 10.953125 -4.78125 C 10.953125 -4.082031 10.800781 -3.429688 10.5 -2.828125 C 10.207031 -2.222656 9.8125 -1.691406 9.3125 -1.234375 C 8.820312 -0.785156 8.253906 -0.429688 7.609375 -0.171875 C 6.972656 0.078125 6.3125 0.203125 5.625 0.203125 C 4.957031 0.203125 4.300781 0.078125 3.65625 -0.171875 C 3.019531 -0.429688 2.445312 -0.785156 1.9375 -1.234375 C 1.4375 -1.691406 1.035156 -2.222656 0.734375 -2.828125 C 0.429688 -3.429688 0.28125 -4.082031 0.28125 -4.78125 L 0.28125 -8.5 C 0.28125 -9.1875 0.429688 -9.820312 0.734375 -10.40625 C 1.035156 -10.988281 1.4375 -11.503906 1.9375 -11.953125 C 2.445312 -12.398438 3.019531 -12.75 3.65625 -13 C 4.300781 -13.25 4.957031 -13.375 5.625 -13.375 C 6.3125 -13.375 6.972656 -13.25 7.609375 -13 C 8.253906 -12.75 8.820312 -12.398438 9.3125 -11.953125 C 9.8125 -11.503906 10.207031 -10.988281 10.5 -10.40625 C 10.800781 -9.820312 10.953125 -9.1875 10.953125 -8.5 L 10.953125 -8.203125 C 10.953125 -8.140625 10.925781 -8.082031 10.875 -8.03125 C 10.832031 -7.988281 10.785156 -7.96875 10.734375 -7.96875 L 6.96875 -7.96875 C 6.894531 -7.96875 6.832031 -7.992188 6.78125 -8.046875 C 6.738281 -8.097656 6.71875 -8.15625 6.71875 -8.21875 L 6.71875 -8.3125 C 6.71875 -8.46875 6.671875 -8.617188 6.578125 -8.765625 C 6.492188 -8.921875 6.390625 -9.035156 6.265625 -9.109375 C 5.972656 -9.285156 5.691406 -9.34375 5.421875 -9.28125 C 5.160156 -9.226562 4.945312 -9.101562 4.78125 -8.90625 C 4.625 -8.707031 4.546875 -8.472656 4.546875 -8.203125 L 4.546875 -4.953125 C 4.546875 -4.679688 4.648438 -4.4375 4.859375 -4.21875 C 5.066406 -4.007812 5.320312 -3.90625 5.625 -3.90625 C 5.914062 -3.90625 6.171875 -4.007812 6.390625 -4.21875 C 6.609375 -4.4375 6.71875 -4.679688 6.71875 -4.953125 C 6.71875 -5.128906 6.800781 -5.21875 6.96875 -5.21875 Z M 6.96875 -5.21875 "/></g></g></g><g fill="#ffa7e4" fill-opacity="1"><g transform="translate(81.625274, 21.425316)"><g><path d="M 9.828125 -13.21875 C 10.171875 -13.21875 10.460938 -13.097656 10.703125 -12.859375 C 10.941406 -12.617188 11.0625 -12.332031 11.0625 -12 L 11.0625 -1.203125 C 11.0625 -0.859375 10.941406 -0.566406 10.703125 -0.328125 C 10.460938 -0.0859375 10.171875 0.03125 9.828125 0.03125 L 7.75 0.03125 C 7.40625 0.03125 7.113281 -0.0859375 6.875 -0.328125 C 6.644531 -0.566406 6.53125 -0.859375 6.53125 -1.203125 L 6.53125 -4.109375 C 6.53125 -4.210938 6.476562 -4.285156 6.375 -4.328125 L 5.234375 -4.328125 C 5.117188 -4.296875 5.054688 -4.222656 5.046875 -4.109375 L 5.046875 -1.203125 C 5.046875 -0.859375 4.925781 -0.566406 4.6875 -0.328125 C 4.457031 -0.0859375 4.171875 0.03125 3.828125 0.03125 L 1.765625 0.03125 C 1.421875 0.03125 1.128906 -0.0859375 0.890625 -0.328125 C 0.660156 -0.566406 0.546875 -0.859375 0.546875 -1.203125 L 0.546875 -12 C 0.546875 -12.332031 0.660156 -12.617188 0.890625 -12.859375 C 1.128906 -13.097656 1.421875 -13.21875 1.765625 -13.21875 L 3.828125 -13.21875 C 4.171875 -13.21875 4.457031 -13.097656 4.6875 -12.859375 C 4.925781 -12.617188 5.046875 -12.332031 5.046875 -12 L 5.046875 -9.046875 C 5.066406 -8.941406 5.128906 -8.878906 5.234375 -8.859375 L 6.375 -8.859375 C 6.476562 -8.878906 6.53125 -8.945312 6.53125 -9.0625 L 6.53125 -12 C 6.53125 -12.332031 6.644531 -12.617188 6.875 -12.859375 C 7.113281 -13.097656 7.40625 -13.21875 7.75 -13.21875 Z M 9.828125 -13.21875 "/></g></g></g><g fill="#ffa7e4" fill-opacity="1"><g transform="translate(93.218308, 21.425316)"><g><path d="M 5.140625 -9.59375 C 5.097656 -9.59375 5.066406 -9.578125 5.046875 -9.546875 C 5.023438 -9.515625 5.015625 -9.484375 5.015625 -9.453125 L 5.015625 -8.375 C 5.015625 -8.3125 5.054688 -8.28125 5.140625 -8.28125 L 7.546875 -8.28125 C 7.765625 -8.28125 7.953125 -8.203125 8.109375 -8.046875 C 8.265625 -7.890625 8.34375 -7.703125 8.34375 -7.484375 L 8.34375 -5.6875 C 8.34375 -5.46875 8.265625 -5.28125 8.109375 -5.125 C 7.953125 -4.976562 7.765625 -4.90625 7.546875 -4.90625 L 5.140625 -4.90625 C 5.054688 -4.90625 5.015625 -4.863281 5.015625 -4.78125 L 5.015625 -3.734375 C 5.015625 -3.660156 5.054688 -3.625 5.140625 -3.625 L 8.46875 -3.625 C 8.707031 -3.625 8.910156 -3.535156 9.078125 -3.359375 C 9.253906 -3.179688 9.34375 -2.972656 9.34375 -2.734375 L 9.34375 -0.890625 C 9.34375 -0.648438 9.253906 -0.445312 9.078125 -0.28125 C 8.910156 -0.113281 8.707031 -0.03125 8.46875 -0.03125 L 1.75 -0.03125 C 1.40625 -0.03125 1.117188 -0.160156 0.890625 -0.421875 C 0.660156 -0.679688 0.546875 -1.050781 0.546875 -1.53125 L 0.546875 -12.234375 C 0.546875 -12.421875 0.660156 -12.617188 0.890625 -12.828125 C 1.117188 -13.035156 1.40625 -13.140625 1.75 -13.140625 L 8.46875 -13.140625 C 8.707031 -13.140625 8.910156 -13.054688 9.078125 -12.890625 C 9.253906 -12.734375 9.34375 -12.535156 9.34375 -12.296875 L 9.34375 -10.453125 C 9.34375 -10.222656 9.253906 -10.019531 9.078125 -9.84375 C 8.910156 -9.675781 8.707031 -9.59375 8.46875 -9.59375 Z M 5.140625 -9.59375 "/></g></g></g><g fill="#ffa7e4" fill-opacity="1"><g transform="translate(103.101164, 21.425316)"><g><path d="M 5.765625 -13.75 C 6.609375 -13.75 7.320312 -13.65625 7.90625 -13.46875 C 8.488281 -13.289062 8.972656 -13.054688 9.359375 -12.765625 C 9.742188 -12.472656 10.046875 -12.160156 10.265625 -11.828125 C 10.484375 -11.503906 10.644531 -11.191406 10.75 -10.890625 C 10.851562 -10.597656 10.921875 -10.363281 10.953125 -10.1875 C 10.972656 -10.0625 10.957031 -9.957031 10.90625 -9.875 C 10.851562 -9.789062 10.78125 -9.742188 10.6875 -9.734375 L 6.65625 -9.1875 C 6.476562 -9.1875 6.351562 -9.273438 6.28125 -9.453125 C 6.207031 -9.679688 6.078125 -9.847656 5.890625 -9.953125 C 5.703125 -10.054688 5.539062 -10.109375 5.40625 -10.109375 C 5.238281 -10.109375 5.046875 -10.03125 4.828125 -9.875 C 4.617188 -9.726562 4.515625 -9.5 4.515625 -9.1875 C 4.515625 -8.914062 4.585938 -8.71875 4.734375 -8.59375 C 4.878906 -8.46875 5.050781 -8.382812 5.25 -8.34375 C 5.445312 -8.3125 5.617188 -8.296875 5.765625 -8.296875 C 6.035156 -8.296875 6.390625 -8.289062 6.828125 -8.28125 C 7.265625 -8.28125 7.726562 -8.226562 8.21875 -8.125 C 8.707031 -8.019531 9.164062 -7.828125 9.59375 -7.546875 C 10.03125 -7.265625 10.382812 -6.851562 10.65625 -6.3125 C 10.9375 -5.769531 11.078125 -5.050781 11.078125 -4.15625 C 11.078125 -3.257812 10.929688 -2.503906 10.640625 -1.890625 C 10.347656 -1.273438 9.96875 -0.785156 9.5 -0.421875 C 9.03125 -0.0664062 8.519531 0.1875 7.96875 0.34375 C 7.425781 0.507812 6.898438 0.59375 6.390625 0.59375 C 5.359375 0.59375 4.492188 0.488281 3.796875 0.28125 C 3.109375 0.0820312 2.539062 -0.1875 2.09375 -0.53125 C 1.65625 -0.882812 1.300781 -1.28125 1.03125 -1.71875 C 0.769531 -2.164062 0.554688 -2.625 0.390625 -3.09375 C 0.253906 -3.34375 0.3125 -3.492188 0.5625 -3.546875 L 4.96875 -4.078125 C 5.09375 -4.097656 5.175781 -4.09375 5.21875 -4.0625 C 5.269531 -4.03125 5.304688 -3.984375 5.328125 -3.921875 C 5.421875 -3.585938 5.554688 -3.378906 5.734375 -3.296875 C 5.910156 -3.210938 6.066406 -3.171875 6.203125 -3.171875 C 6.429688 -3.171875 6.640625 -3.253906 6.828125 -3.421875 C 7.015625 -3.597656 7.109375 -3.816406 7.109375 -4.078125 C 7.109375 -4.347656 7.007812 -4.5625 6.8125 -4.71875 C 6.625 -4.875 6.394531 -4.953125 6.125 -4.953125 L 5.140625 -4.953125 C 4.210938 -4.953125 3.378906 -5.125 2.640625 -5.46875 C 1.910156 -5.820312 1.332031 -6.335938 0.90625 -7.015625 C 0.488281 -7.691406 0.28125 -8.503906 0.28125 -9.453125 C 0.28125 -10.222656 0.40625 -10.863281 0.65625 -11.375 C 0.90625 -11.882812 1.234375 -12.296875 1.640625 -12.609375 C 2.046875 -12.921875 2.476562 -13.160156 2.9375 -13.328125 C 3.40625 -13.492188 3.847656 -13.601562 4.265625 -13.65625 C 4.679688 -13.707031 5.023438 -13.734375 5.296875 -13.734375 C 5.566406 -13.742188 5.722656 -13.75 5.765625 -13.75 Z M 5.765625 -13.75 "/></g></g></g><g fill="#ffa7e4" fill-opacity="1"><g transform="translate(114.447538, 21.425316)"><g><path d="M 5.765625 -13.75 C 6.609375 -13.75 7.320312 -13.65625 7.90625 -13.46875 C 8.488281 -13.289062 8.972656 -13.054688 9.359375 -12.765625 C 9.742188 -12.472656 10.046875 -12.160156 10.265625 -11.828125 C 10.484375 -11.503906 10.644531 -11.191406 10.75 -10.890625 C 10.851562 -10.597656 10.921875 -10.363281 10.953125 -10.1875 C 10.972656 -10.0625 10.957031 -9.957031 10.90625 -9.875 C 10.851562 -9.789062 10.78125 -9.742188 10.6875 -9.734375 L 6.65625 -9.1875 C 6.476562 -9.1875 6.351562 -9.273438 6.28125 -9.453125 C 6.207031 -9.679688 6.078125 -9.847656 5.890625 -9.953125 C 5.703125 -10.054688 5.539062 -10.109375 5.40625 -10.109375 C 5.238281 -10.109375 5.046875 -10.03125 4.828125 -9.875 C 4.617188 -9.726562 4.515625 -9.5 4.515625 -9.1875 C 4.515625 -8.914062 4.585938 -8.71875 4.734375 -8.59375 C 4.878906 -8.46875 5.050781 -8.382812 5.25 -8.34375 C 5.445312 -8.3125 5.617188 -8.296875 5.765625 -8.296875 C 6.035156 -8.296875 6.390625 -8.289062 6.828125 -8.28125 C 7.265625 -8.28125 7.726562 -8.226562 8.21875 -8.125 C 8.707031 -8.019531 9.164062 -7.828125 9.59375 -7.546875 C 10.03125 -7.265625 10.382812 -6.851562 10.65625 -6.3125 C 10.9375 -5.769531 11.078125 -5.050781 11.078125 -4.15625 C 11.078125 -3.257812 10.929688 -2.503906 10.640625 -1.890625 C 10.347656 -1.273438 9.96875 -0.785156 9.5 -0.421875 C 9.03125 -0.0664062 8.519531 0.1875 7.96875 0.34375 C 7.425781 0.507812 6.898438 0.59375 6.390625 0.59375 C 5.359375 0.59375 4.492188 0.488281 3.796875 0.28125 C 3.109375 0.0820312 2.539062 -0.1875 2.09375 -0.53125 C 1.65625 -0.882812 1.300781 -1.28125 1.03125 -1.71875 C 0.769531 -2.164062 0.554688 -2.625 0.390625 -3.09375 C 0.253906 -3.34375 0.3125 -3.492188 0.5625 -3.546875 L 4.96875 -4.078125 C 5.09375 -4.097656 5.175781 -4.09375 5.21875 -4.0625 C 5.269531 -4.03125 5.304688 -3.984375 5.328125 -3.921875 C 5.421875 -3.585938 5.554688 -3.378906 5.734375 -3.296875 C 5.910156 -3.210938 6.066406 -3.171875 6.203125 -3.171875 C 6.429688 -3.171875 6.640625 -3.253906 6.828125 -3.421875 C 7.015625 -3.597656 7.109375 -3.816406 7.109375 -4.078125 C 7.109375 -4.347656 7.007812 -4.5625 6.8125 -4.71875 C 6.625 -4.875 6.394531 -4.953125 6.125 -4.953125 L 5.140625 -4.953125 C 4.210938 -4.953125 3.378906 -5.125 2.640625 -5.46875 C 1.910156 -5.820312 1.332031 -6.335938 0.90625 -7.015625 C 0.488281 -7.691406 0.28125 -8.503906 0.28125 -9.453125 C 0.28125 -10.222656 0.40625 -10.863281 0.65625 -11.375 C 0.90625 -11.882812 1.234375 -12.296875 1.640625 -12.609375 C 2.046875 -12.921875 2.476562 -13.160156 2.9375 -13.328125 C 3.40625 -13.492188 3.847656 -13.601562 4.265625 -13.65625 C 4.679688 -13.707031 5.023438 -13.734375 5.296875 -13.734375 C 5.566406 -13.742188 5.722656 -13.75 5.765625 -13.75 Z M 5.765625 -13.75 "/></g></g></g><path stroke-linecap="butt" transform="matrix(0.725806, 0, 0, 0.725806, 70.959675, 7.949823)" fill="none" stroke-linejoin="miter" d="M 9.608511 10.816876 L 14.775177 10.816876 C 14.850525 10.816876 14.92049 10.854549 14.985073 10.919133 C 15.055039 10.983716 15.092712 11.059063 15.092712 11.13441 L 15.092712 11.403508 C 15.092712 12.372258 14.888198 13.271042 14.47917 14.105244 C 14.070143 14.934063 13.526566 15.666008 12.832295 16.290313 C 12.148789 16.920001 11.368407 17.404376 10.49115 17.74882 C 9.613893 18.098647 8.704344 18.270869 7.75174 18.270869 C 6.826045 18.270869 5.927261 18.098647 5.03924 17.74882 C 4.156601 17.404376 3.370837 16.920001 2.671184 16.290313 C 1.976913 15.666008 1.422573 14.934063 1.008163 14.105244 C 0.593754 13.271042 0.38924 12.372258 0.38924 11.403508 L 0.38924 6.285278 C 0.38924 5.343438 0.593754 4.471563 1.008163 3.664272 C 1.422573 2.85698 1.976913 2.146563 2.671184 1.538403 C 3.370837 0.924862 4.156601 0.445869 5.03924 0.0960423 C 5.927261 -0.248402 6.826045 -0.420624 7.75174 -0.420624 C 8.704344 -0.420624 9.613893 -0.248402 10.49115 0.0960423 C 11.368407 0.445869 12.148789 0.924862 12.832295 1.538403 C 13.526566 2.146563 14.070143 2.85698 14.47917 3.664272 C 14.888198 4.471563 15.092712 5.343438 15.092712 6.285278 L 15.092712 6.694306 C 15.092712 6.785799 15.055039 6.866528 14.985073 6.936494 C 14.92049 7.001077 14.850525 7.033369 14.775177 7.033369 L 9.608511 7.033369 C 9.500872 7.033369 9.414761 6.995695 9.344795 6.92573 C 9.280212 6.845001 9.242539 6.764272 9.242539 6.667397 L 9.242539 6.559758 C 9.242539 6.34448 9.183337 6.134584 9.059552 5.924688 C 8.94115 5.70941 8.801219 5.553334 8.634379 5.445695 C 8.225351 5.203508 7.837851 5.122778 7.471879 5.20889 C 7.111288 5.289619 6.815282 5.467223 6.58924 5.741702 C 6.363198 6.016181 6.250177 6.328334 6.250177 6.694306 L 6.250177 11.177466 C 6.250177 11.559584 6.39549 11.898647 6.680733 12.189272 C 6.971358 12.479897 7.326566 12.630591 7.75174 12.630591 C 8.13924 12.630591 8.489066 12.479897 8.790455 12.189272 C 9.091844 11.898647 9.242539 11.559584 9.242539 11.177466 C 9.242539 10.94066 9.366323 10.816876 9.608511 10.816876 Z M 28.999657 -0.194583 C 29.484032 -0.194583 29.887678 -0.0331243 30.210594 0.289792 C 30.538893 0.618091 30.705733 1.010973 30.705733 1.479202 L 30.705733 16.344133 C 30.705733 16.812362 30.538893 17.216008 30.210594 17.544306 C 29.887678 17.877987 29.484032 18.044827 28.999657 18.044827 L 26.147226 18.044827 C 25.678997 18.044827 25.280733 17.877987 24.957816 17.544306 C 24.629518 17.216008 24.468059 16.812362 24.468059 16.344133 L 24.468059 12.334584 C 24.468059 12.200035 24.392712 12.10316 24.242018 12.043959 L 22.681254 12.043959 C 22.530559 12.087015 22.444448 12.18389 22.428303 12.334584 L 22.428303 16.344133 C 22.428303 16.812362 22.266844 17.216008 21.943927 17.544306 C 21.615629 17.877987 21.222747 18.044827 20.754518 18.044827 L 17.896705 18.044827 C 17.428476 18.044827 17.030212 17.877987 16.707296 17.544306 C 16.384379 17.216008 16.222921 16.812362 16.222921 16.344133 L 16.222921 1.479202 C 16.222921 1.010973 16.384379 0.618091 16.707296 0.289792 C 17.030212 -0.0331243 17.428476 -0.194583 17.896705 -0.194583 L 20.754518 -0.194583 C 21.222747 -0.194583 21.615629 -0.0331243 21.943927 0.289792 C 22.266844 0.618091 22.428303 1.010973 22.428303 1.479202 L 22.428303 5.537188 C 22.460594 5.687883 22.546705 5.779376 22.681254 5.806285 L 24.242018 5.806285 C 24.392712 5.779376 24.468059 5.677119 24.468059 5.51566 L 24.468059 1.479202 C 24.468059 1.010973 24.629518 0.618091 24.957816 0.289792 C 25.280733 -0.0331243 25.678997 -0.194583 26.147226 -0.194583 Z M 38.514935 4.789098 C 38.471879 4.789098 38.434205 4.810626 38.401914 4.859063 C 38.369622 4.907501 38.358858 4.939792 38.358858 4.972084 L 38.358858 6.462883 C 38.358858 6.559758 38.412678 6.602813 38.514935 6.602813 L 41.846358 6.602813 C 42.147747 6.602813 42.40608 6.710452 42.615976 6.920348 C 42.831254 7.130244 42.938893 7.383195 42.938893 7.689966 L 42.938893 10.160279 C 42.938893 10.461667 42.831254 10.720001 42.615976 10.929897 C 42.40608 11.139792 42.147747 11.247431 41.846358 11.247431 L 38.514935 11.247431 C 38.412678 11.247431 38.358858 11.301251 38.358858 11.403508 L 38.358858 12.856633 C 38.358858 12.964272 38.412678 13.018091 38.514935 13.018091 L 43.116497 13.018091 C 43.450178 13.018091 43.735421 13.136494 43.966844 13.378681 C 44.20365 13.620869 44.322053 13.906112 44.322053 14.239792 L 44.322053 16.774688 C 44.322053 17.108369 44.20365 17.38823 43.966844 17.619654 C 43.735421 17.845695 43.450178 17.953334 43.116497 17.953334 L 33.848789 17.953334 C 33.38056 17.953334 32.987678 17.781112 32.670143 17.425904 C 32.352608 17.065313 32.19115 16.554029 32.19115 15.892049 L 32.19115 1.145522 C 32.19115 0.887188 32.352608 0.612709 32.670143 0.322084 C 32.987678 0.0368409 33.38056 -0.108472 33.848789 -0.108472 L 43.116497 -0.108472 C 43.450178 -0.108472 43.735421 0.00993122 43.966844 0.235973 C 44.20365 0.462015 44.322053 0.741876 44.322053 1.070174 L 44.322053 3.610452 C 44.322053 3.927987 44.20365 4.202466 43.966844 4.439272 C 43.735421 4.670695 43.450178 4.789098 43.116497 4.789098 Z M 52.997747 -0.942673 C 54.160247 -0.942673 55.145143 -0.813506 55.952435 -0.555173 C 56.759726 -0.302222 57.427088 0.0260771 57.954518 0.429723 C 58.481949 0.827987 58.90174 1.25316 59.203129 1.705244 C 59.504518 2.162709 59.73056 2.593265 59.87049 3.002292 C 60.015803 3.405938 60.112678 3.734237 60.155733 3.976424 C 60.182643 4.143265 60.161115 4.283195 60.085768 4.396216 C 60.010421 4.509237 59.913546 4.568438 59.789761 4.584584 L 54.240976 5.354202 C 53.982643 5.354202 53.810421 5.225035 53.718928 4.972084 C 53.616671 4.670695 53.433685 4.444653 53.175351 4.304723 C 52.917018 4.15941 52.70174 4.084063 52.518754 4.084063 C 52.276567 4.084063 52.007469 4.191702 51.711462 4.396216 C 51.415456 4.60073 51.270143 4.918265 51.270143 5.354202 C 51.270143 5.720174 51.3724 5.989272 51.576914 6.161494 C 51.781428 6.333716 52.018233 6.446737 52.287331 6.505938 C 52.56181 6.554376 52.798615 6.581285 52.997747 6.581285 C 53.374483 6.581285 53.86424 6.586667 54.467018 6.592049 C 55.075178 6.597431 55.710247 6.67816 56.38299 6.818091 C 57.055733 6.963403 57.685421 7.227119 58.282817 7.609237 C 58.880213 7.996737 59.369969 8.561841 59.746706 9.309931 C 60.123442 10.058022 60.317192 11.042917 60.317192 12.270001 C 60.317192 13.507848 60.112678 14.551945 59.714414 15.396911 C 59.31615 16.236494 58.794101 16.914619 58.148268 17.41514 C 57.507817 17.910279 56.808164 18.270869 56.04931 18.486147 C 55.295837 18.706806 54.563893 18.814445 53.853476 18.814445 C 52.432643 18.814445 51.248615 18.674515 50.296011 18.394654 C 49.343407 18.114792 48.563025 17.738056 47.949483 17.253681 C 47.341324 16.769306 46.851567 16.22573 46.490976 15.622952 C 46.130386 15.014792 45.834379 14.390487 45.602955 13.739272 C 45.409205 13.394827 45.484553 13.179549 45.834379 13.104202 L 51.905212 12.37764 C 52.072053 12.35073 52.190456 12.361494 52.255039 12.404549 C 52.325004 12.452987 52.373442 12.51757 52.405733 12.603681 C 52.524136 13.061147 52.712504 13.34639 52.960074 13.45941 C 53.207643 13.567049 53.422921 13.626251 53.605907 13.626251 C 53.923442 13.626251 54.208685 13.507848 54.461636 13.276424 C 54.719969 13.039619 54.849136 12.73823 54.849136 12.37764 C 54.849136 12.000904 54.714587 11.710279 54.450872 11.500383 C 54.187157 11.285105 53.869622 11.177466 53.492886 11.177466 L 52.131254 11.177466 C 50.866497 11.177466 49.725525 10.935279 48.708337 10.456285 C 47.696532 9.97191 46.900004 9.266876 46.318754 8.335799 C 45.737504 7.404723 45.452261 6.285278 45.452261 4.972084 C 45.452261 3.911841 45.624483 3.034584 45.968928 2.334931 C 46.318754 1.629897 46.770837 1.064792 47.325178 0.634237 C 47.8849 0.203681 48.482296 -0.124617 49.117365 -0.350659 C 49.752435 -0.576701 50.355212 -0.732777 50.931081 -0.802742 C 51.506949 -0.883472 51.985942 -0.926527 52.362678 -0.931909 C 52.734032 -0.937291 52.94931 -0.942673 52.997747 -0.942673 Z M 68.626914 -0.942673 C 69.789414 -0.942673 70.77431 -0.813506 71.581602 -0.555173 C 72.388893 -0.302222 73.056254 0.0260771 73.583685 0.429723 C 74.116497 0.827987 74.536289 1.25316 74.837678 1.705244 C 75.139067 2.162709 75.359727 2.593265 75.505039 3.002292 C 75.650352 3.405938 75.741845 3.734237 75.790282 3.976424 C 75.817192 4.143265 75.795664 4.283195 75.714935 4.396216 C 75.639588 4.509237 75.542713 4.568438 75.42431 4.584584 L 69.875525 5.354202 C 69.617192 5.354202 69.44497 5.225035 69.353477 4.972084 C 69.245838 4.670695 69.062852 4.444653 68.804518 4.304723 C 68.551567 4.15941 68.336289 4.084063 68.153303 4.084063 C 67.911115 4.084063 67.642018 4.191702 67.346011 4.396216 C 67.050004 4.60073 66.904692 4.918265 66.904692 5.354202 C 66.904692 5.720174 67.006949 5.989272 67.206081 6.161494 C 67.415976 6.333716 67.652782 6.446737 67.921879 6.505938 C 68.196358 6.554376 68.427782 6.581285 68.626914 6.581285 C 69.00365 6.581285 69.493407 6.586667 70.101567 6.592049 C 70.704345 6.597431 71.344796 6.67816 72.017539 6.818091 C 72.6849 6.963403 73.31997 7.227119 73.917365 7.609237 C 74.514761 7.996737 75.004518 8.561841 75.375872 9.309931 C 75.75799 10.058022 75.946359 11.042917 75.946359 12.270001 C 75.946359 13.507848 75.747227 14.551945 75.343581 15.396911 C 74.945317 16.236494 74.423268 16.914619 73.777435 17.41514 C 73.136983 17.910279 72.437331 18.270869 71.683858 18.486147 C 70.930386 18.706806 70.198442 18.814445 69.488025 18.814445 C 68.067192 18.814445 66.883164 18.674515 65.93056 18.394654 C 64.977956 18.114792 64.197574 17.738056 63.584032 17.253681 C 62.97049 16.769306 62.486115 16.22573 62.125525 15.622952 C 61.759553 15.014792 61.468928 14.390487 61.237504 13.739272 C 61.043754 13.394827 61.119101 13.179549 61.463546 13.104202 L 67.539761 12.37764 C 67.706601 12.35073 67.819622 12.361494 67.889588 12.404549 C 67.959553 12.452987 68.00799 12.51757 68.0349 12.603681 C 68.158685 13.061147 68.341671 13.34639 68.58924 13.45941 C 68.842192 13.567049 69.05747 13.626251 69.235074 13.626251 C 69.552608 13.626251 69.843233 13.507848 70.096185 13.276424 C 70.354518 13.039619 70.483685 12.73823 70.483685 12.37764 C 70.483685 12.000904 70.349136 11.710279 70.085421 11.500383 C 69.821706 11.285105 69.504171 11.177466 69.127435 11.177466 L 67.765803 11.177466 C 66.495664 11.177466 65.354692 10.935279 64.342886 10.456285 C 63.331081 9.97191 62.534553 9.266876 61.953303 8.335799 C 61.372053 7.404723 61.081428 6.285278 61.081428 4.972084 C 61.081428 3.911841 61.259032 3.034584 61.603476 2.334931 C 61.947921 1.629897 62.400004 1.064792 62.959726 0.634237 C 63.519449 0.203681 64.116845 -0.124617 64.751914 -0.350659 C 65.386983 -0.576701 65.989761 -0.732777 66.565629 -0.802742 C 67.141497 -0.883472 67.615108 -0.926527 67.991845 -0.931909 C 68.368581 -0.937291 68.583858 -0.942673 68.626914 -0.942673 Z M 68.626914 -0.942673 " stroke="#ff66c4" stroke-width="0.368334" stroke-opacity="1" stroke-miterlimit="4"/><g fill="#5ce1e6" fill-opacity="1"><g transform="translate(2.31337, 21.425316)"><g><path d="M 10.78125 -1.40625 C 10.863281 -1.019531 10.789062 -0.695312 10.5625 -0.4375 C 10.34375 -0.175781 10.070312 -0.046875 9.75 -0.046875 L 7.09375 -0.046875 C 6.820312 -0.046875 6.535156 -0.160156 6.234375 -0.390625 C 5.929688 -0.617188 5.734375 -0.921875 5.640625 -1.296875 L 5.078125 -3.984375 C 5.078125 -4.035156 5.046875 -4.0625 4.984375 -4.0625 C 4.929688 -4.0625 4.90625 -4.03125 4.90625 -3.96875 L 4.90625 -1.21875 C 4.90625 -1.082031 4.894531 -0.957031 4.875 -0.84375 C 4.863281 -0.738281 4.78125 -0.601562 4.625 -0.4375 C 4.507812 -0.3125 4.375 -0.210938 4.21875 -0.140625 C 4.070312 -0.078125 3.914062 -0.046875 3.75 -0.046875 L 1.640625 -0.046875 C 1.328125 -0.046875 1.054688 -0.15625 0.828125 -0.375 C 0.609375 -0.601562 0.5 -0.875 0.5 -1.1875 L 0.5 -11.671875 C 0.5 -12.140625 0.609375 -12.5 0.828125 -12.75 C 1.054688 -13 1.328125 -13.125 1.640625 -13.125 L 7.578125 -13.140625 C 8.179688 -13.140625 8.726562 -12.972656 9.21875 -12.640625 C 9.707031 -12.304688 10.097656 -11.832031 10.390625 -11.21875 C 10.679688 -10.613281 10.828125 -9.890625 10.828125 -9.046875 C 10.828125 -8.335938 10.71875 -7.707031 10.5 -7.15625 C 10.289062 -6.613281 10.003906 -6.128906 9.640625 -5.703125 C 9.679688 -5.640625 9.71875 -5.535156 9.75 -5.390625 Z M 6.40625 -8.625 C 6.40625 -8.894531 6.304688 -9.125 6.109375 -9.3125 C 5.921875 -9.507812 5.691406 -9.609375 5.421875 -9.609375 L 5.109375 -9.609375 C 4.972656 -9.609375 4.90625 -9.535156 4.90625 -9.390625 L 4.90625 -7.640625 C 4.90625 -7.492188 4.972656 -7.421875 5.109375 -7.421875 L 5.421875 -7.421875 C 5.691406 -7.421875 5.921875 -7.515625 6.109375 -7.703125 C 6.304688 -7.898438 6.40625 -8.128906 6.40625 -8.390625 Z M 6.40625 -8.625 "/></g></g></g><g fill="#5ce1e6" fill-opacity="1"><g transform="translate(13.67619, 21.425316)"><g><path d="M 12.546875 -1.375 C 12.609375 -1.132812 12.585938 -0.894531 12.484375 -0.65625 C 12.390625 -0.425781 12.234375 -0.25 12.015625 -0.125 C 11.867188 -0.0390625 11.703125 0 11.515625 0 L 9.28125 0 C 8.96875 0 8.734375 -0.09375 8.578125 -0.28125 C 8.429688 -0.46875 8.296875 -0.710938 8.171875 -1.015625 L 7.6875 -2.296875 L 5.171875 -2.296875 L 4.6875 -1.015625 C 4.570312 -0.710938 4.4375 -0.46875 4.28125 -0.28125 C 4.125 -0.101562 3.894531 -0.015625 3.59375 -0.015625 L 1.34375 -0.015625 C 1.164062 -0.015625 1.023438 -0.0390625 0.921875 -0.09375 C 0.679688 -0.207031 0.503906 -0.382812 0.390625 -0.625 C 0.273438 -0.875 0.25 -1.132812 0.3125 -1.40625 L 3.28125 -12.28125 C 3.3125 -12.425781 3.363281 -12.546875 3.4375 -12.640625 C 3.519531 -12.742188 3.601562 -12.820312 3.6875 -12.875 C 3.863281 -13.019531 4.078125 -13.09375 4.328125 -13.09375 L 8.640625 -13.09375 C 8.753906 -13.09375 8.882812 -13.070312 9.03125 -13.03125 C 9.175781 -12.988281 9.304688 -12.90625 9.421875 -12.78125 C 9.546875 -12.65625 9.625 -12.519531 9.65625 -12.375 C 9.695312 -12.238281 9.726562 -12.125 9.75 -12.03125 Z M 7.203125 -6.109375 C 7.285156 -6.109375 7.347656 -6.140625 7.390625 -6.203125 C 7.429688 -6.265625 7.441406 -6.335938 7.421875 -6.421875 L 7 -7.53125 L 6.640625 -8.390625 C 6.609375 -8.503906 6.535156 -8.5625 6.421875 -8.5625 C 6.316406 -8.5625 6.25 -8.503906 6.21875 -8.390625 L 5.890625 -7.53125 L 5.46875 -6.421875 C 5.414062 -6.335938 5.414062 -6.265625 5.46875 -6.203125 C 5.53125 -6.140625 5.597656 -6.109375 5.671875 -6.109375 Z M 7.203125 -6.109375 "/></g></g></g><g fill="#5ce1e6" fill-opacity="1"><g transform="translate(26.53541, 21.425316)"><g><path d="M 6.96875 -5.21875 L 10.734375 -5.21875 C 10.785156 -5.21875 10.832031 -5.191406 10.875 -5.140625 C 10.925781 -5.085938 10.953125 -5.035156 10.953125 -4.984375 L 10.953125 -4.78125 C 10.953125 -4.082031 10.800781 -3.429688 10.5 -2.828125 C 10.207031 -2.222656 9.8125 -1.691406 9.3125 -1.234375 C 8.820312 -0.785156 8.253906 -0.429688 7.609375 -0.171875 C 6.972656 0.078125 6.3125 0.203125 5.625 0.203125 C 4.957031 0.203125 4.300781 0.078125 3.65625 -0.171875 C 3.019531 -0.429688 2.445312 -0.785156 1.9375 -1.234375 C 1.4375 -1.691406 1.035156 -2.222656 0.734375 -2.828125 C 0.429688 -3.429688 0.28125 -4.082031 0.28125 -4.78125 L 0.28125 -8.5 C 0.28125 -9.1875 0.429688 -9.820312 0.734375 -10.40625 C 1.035156 -10.988281 1.4375 -11.503906 1.9375 -11.953125 C 2.445312 -12.398438 3.019531 -12.75 3.65625 -13 C 4.300781 -13.25 4.957031 -13.375 5.625 -13.375 C 6.3125 -13.375 6.972656 -13.25 7.609375 -13 C 8.253906 -12.75 8.820312 -12.398438 9.3125 -11.953125 C 9.8125 -11.503906 10.207031 -10.988281 10.5 -10.40625 C 10.800781 -9.820312 10.953125 -9.1875 10.953125 -8.5 L 10.953125 -8.203125 C 10.953125 -8.140625 10.925781 -8.082031 10.875 -8.03125 C 10.832031 -7.988281 10.785156 -7.96875 10.734375 -7.96875 L 6.96875 -7.96875 C 6.894531 -7.96875 6.832031 -7.992188 6.78125 -8.046875 C 6.738281 -8.097656 6.71875 -8.15625 6.71875 -8.21875 L 6.71875 -8.3125 C 6.71875 -8.46875 6.671875 -8.617188 6.578125 -8.765625 C 6.492188 -8.921875 6.390625 -9.035156 6.265625 -9.109375 C 5.972656 -9.285156 5.691406 -9.34375 5.421875 -9.28125 C 5.160156 -9.226562 4.945312 -9.101562 4.78125 -8.90625 C 4.625 -8.707031 4.546875 -8.472656 4.546875 -8.203125 L 4.546875 -4.953125 C 4.546875 -4.679688 4.648438 -4.4375 4.859375 -4.21875 C 5.066406 -4.007812 5.320312 -3.90625 5.625 -3.90625 C 5.914062 -3.90625 6.171875 -4.007812 6.390625 -4.21875 C 6.609375 -4.4375 6.71875 -4.679688 6.71875 -4.953125 C 6.71875 -5.128906 6.800781 -5.21875 6.96875 -5.21875 Z M 6.96875 -5.21875 "/></g></g></g><g fill="#5ce1e6" fill-opacity="1"><g transform="translate(37.766671, 21.425316)"><g><path d="M 9.828125 -13.21875 C 10.171875 -13.21875 10.460938 -13.097656 10.703125 -12.859375 C 10.941406 -12.617188 11.0625 -12.332031 11.0625 -12 L 11.0625 -1.203125 C 11.0625 -0.859375 10.941406 -0.566406 10.703125 -0.328125 C 10.460938 -0.0859375 10.171875 0.03125 9.828125 0.03125 L 7.75 0.03125 C 7.40625 0.03125 7.113281 -0.0859375 6.875 -0.328125 C 6.644531 -0.566406 6.53125 -0.859375 6.53125 -1.203125 L 6.53125 -4.109375 C 6.53125 -4.210938 6.476562 -4.285156 6.375 -4.328125 L 5.234375 -4.328125 C 5.117188 -4.296875 5.054688 -4.222656 5.046875 -4.109375 L 5.046875 -1.203125 C 5.046875 -0.859375 4.925781 -0.566406 4.6875 -0.328125 C 4.457031 -0.0859375 4.171875 0.03125 3.828125 0.03125 L 1.765625 0.03125 C 1.421875 0.03125 1.128906 -0.0859375 0.890625 -0.328125 C 0.660156 -0.566406 0.546875 -0.859375 0.546875 -1.203125 L 0.546875 -12 C 0.546875 -12.332031 0.660156 -12.617188 0.890625 -12.859375 C 1.128906 -13.097656 1.421875 -13.21875 1.765625 -13.21875 L 3.828125 -13.21875 C 4.171875 -13.21875 4.457031 -13.097656 4.6875 -12.859375 C 4.925781 -12.617188 5.046875 -12.332031 5.046875 -12 L 5.046875 -9.046875 C 5.066406 -8.941406 5.128906 -8.878906 5.234375 -8.859375 L 6.375 -8.859375 C 6.476562 -8.878906 6.53125 -8.945312 6.53125 -9.0625 L 6.53125 -12 C 6.53125 -12.332031 6.644531 -12.617188 6.875 -12.859375 C 7.113281 -13.097656 7.40625 -13.21875 7.75 -13.21875 Z M 9.828125 -13.21875 "/></g></g></g><g fill="#5ce1e6" fill-opacity="1"><g transform="translate(49.359706, 21.425316)"><g><path d="M 5.140625 -9.59375 C 5.097656 -9.59375 5.066406 -9.578125 5.046875 -9.546875 C 5.023438 -9.515625 5.015625 -9.484375 5.015625 -9.453125 L 5.015625 -8.375 C 5.015625 -8.3125 5.054688 -8.28125 5.140625 -8.28125 L 7.546875 -8.28125 C 7.765625 -8.28125 7.953125 -8.203125 8.109375 -8.046875 C 8.265625 -7.890625 8.34375 -7.703125 8.34375 -7.484375 L 8.34375 -5.6875 C 8.34375 -5.46875 8.265625 -5.28125 8.109375 -5.125 C 7.953125 -4.976562 7.765625 -4.90625 7.546875 -4.90625 L 5.140625 -4.90625 C 5.054688 -4.90625 5.015625 -4.863281 5.015625 -4.78125 L 5.015625 -3.734375 C 5.015625 -3.660156 5.054688 -3.625 5.140625 -3.625 L 8.46875 -3.625 C 8.707031 -3.625 8.910156 -3.535156 9.078125 -3.359375 C 9.253906 -3.179688 9.34375 -2.972656 9.34375 -2.734375 L 9.34375 -0.890625 C 9.34375 -0.648438 9.253906 -0.445312 9.078125 -0.28125 C 8.910156 -0.113281 8.707031 -0.03125 8.46875 -0.03125 L 1.75 -0.03125 C 1.40625 -0.03125 1.117188 -0.160156 0.890625 -0.421875 C 0.660156 -0.679688 0.546875 -1.050781 0.546875 -1.53125 L 0.546875 -12.234375 C 0.546875 -12.421875 0.660156 -12.617188 0.890625 -12.828125 C 1.117188 -13.035156 1.40625 -13.140625 1.75 -13.140625 L 8.46875 -13.140625 C 8.707031 -13.140625 8.910156 -13.054688 9.078125 -12.890625 C 9.253906 -12.734375 9.34375 -12.535156 9.34375 -12.296875 L 9.34375 -10.453125 C 9.34375 -10.222656 9.253906 -10.019531 9.078125 -9.84375 C 8.910156 -9.675781 8.707031 -9.59375 8.46875 -9.59375 Z M 5.140625 -9.59375 "/></g></g></g><g fill="#5ce1e6" fill-opacity="1"><g transform="translate(59.242562, 21.425316)"><g><path d="M 8.15625 -4.4375 C 8.46875 -4.4375 8.726562 -4.320312 8.9375 -4.09375 C 9.15625 -3.863281 9.265625 -3.597656 9.265625 -3.296875 L 9.265625 -1.078125 C 9.265625 -0.785156 9.15625 -0.53125 8.9375 -0.3125 C 8.726562 -0.101562 8.46875 0 8.15625 0 L 1.625 0 C 1.28125 0 1.015625 -0.101562 0.828125 -0.3125 C 0.640625 -0.53125 0.546875 -0.785156 0.546875 -1.078125 L 0.546875 -11.828125 C 0.546875 -12.179688 0.65625 -12.488281 0.875 -12.75 C 1.101562 -13.019531 1.394531 -13.15625 1.75 -13.15625 L 3.65625 -13.15625 C 3.988281 -13.15625 4.285156 -13.019531 4.546875 -12.75 C 4.816406 -12.488281 4.953125 -12.179688 4.953125 -11.828125 L 4.953125 -4.4375 Z M 8.15625 -4.4375 "/></g></g></g><g clip-path="url(#a1c24dc320)"><path stroke-linecap="butt" transform="matrix(0.725806, 0, 0, 0.725806, 2.87903, 7.949823)" fill="none" stroke-linejoin="miter" d="M 14.843232 16.075036 C 14.967017 16.602466 14.870142 17.043786 14.563371 17.404376 C 14.251218 17.754202 13.874482 17.931806 13.438545 17.931806 L 9.762677 17.931806 C 9.385941 17.931806 8.993059 17.77573 8.573267 17.458195 C 8.164239 17.140661 7.895142 16.726251 7.771357 16.209584 L 7.179343 13.448647 L 7.001739 12.51757 C 7.001739 12.442223 6.958684 12.399167 6.86719 12.399167 C 6.791843 12.399167 6.75417 12.447605 6.75417 12.539098 L 6.75417 16.322605 C 6.75417 16.505591 6.743406 16.672431 6.716496 16.823126 C 6.694968 16.97382 6.576565 17.162188 6.36667 17.38823 C 6.215975 17.571216 6.032989 17.711147 5.817711 17.80264 C 5.607815 17.888751 5.392538 17.931806 5.166496 17.931806 L 2.265628 17.931806 C 1.82969 17.931806 1.452954 17.781112 1.146183 17.468959 C 0.834031 17.156806 0.677954 16.790834 0.677954 16.365661 L 0.677954 1.936667 C 0.677954 1.285452 0.834031 0.784931 1.146183 0.440487 C 1.452954 0.0906604 1.82969 -0.0869438 2.265628 -0.0869438 L 10.446184 -0.108472 C 11.280385 -0.108472 12.028475 0.122952 12.701218 0.585799 C 13.373961 1.043265 13.906774 1.69448 14.305038 2.539445 C 14.708684 3.373647 14.907816 4.374688 14.907816 5.537188 C 14.907816 6.516702 14.762503 7.383195 14.466496 8.131285 C 14.170489 8.879376 13.777607 9.546737 13.277086 10.138751 C 13.34167 10.224862 13.395489 10.370174 13.438545 10.569306 Z M 8.815454 6.129202 C 8.815454 5.747084 8.680906 5.429549 8.41719 5.165834 C 8.153475 4.902119 7.841322 4.76757 7.480732 4.76757 L 7.050177 4.76757 C 6.851045 4.76757 6.75417 4.864445 6.75417 5.058195 L 6.75417 7.485452 C 6.75417 7.684584 6.851045 7.781459 7.050177 7.781459 L 7.480732 7.781459 C 7.841322 7.781459 8.153475 7.64691 8.41719 7.383195 C 8.680906 7.11948 8.815454 6.801945 8.815454 6.441355 Z M 32.942712 16.096563 C 33.023441 16.430244 32.991149 16.758542 32.8566 17.081459 C 32.71667 17.404376 32.501392 17.651945 32.194621 17.818786 C 32.000871 17.937188 31.77483 18.001772 31.516496 18.001772 L 28.432642 18.001772 C 28.01285 18.001772 27.695316 17.872605 27.48542 17.619654 C 27.275524 17.36132 27.087156 17.016876 26.920316 16.597084 L 26.236809 14.831806 L 22.770836 14.831806 L 22.114239 16.597084 C 21.947399 17.016876 21.759031 17.355938 21.549135 17.60889 C 21.339239 17.856459 21.021704 17.980244 20.596531 17.980244 L 17.512677 17.980244 C 17.270489 17.980244 17.071357 17.937188 16.920663 17.861841 C 16.592364 17.711147 16.344795 17.463577 16.188718 17.124515 C 16.02726 16.785452 15.994968 16.435626 16.086461 16.075036 L 20.165975 1.091702 C 20.209031 0.881806 20.28976 0.709584 20.402781 0.575035 C 20.515802 0.435105 20.628823 0.332848 20.736461 0.257501 C 20.973267 0.0637507 21.269274 -0.0331243 21.613718 -0.0331243 L 27.550003 -0.0331243 C 27.716843 -0.0331243 27.894448 -0.00621462 28.09358 0.0529868 C 28.292711 0.112188 28.475698 0.225209 28.637156 0.392049 C 28.803996 0.575035 28.917017 0.763403 28.965455 0.951772 C 29.019274 1.14014 29.06233 1.301598 29.094621 1.436147 Z M 25.580211 9.589792 C 25.68785 9.589792 25.76858 9.546737 25.827781 9.460626 C 25.886982 9.363751 25.903128 9.266876 25.870836 9.164619 L 25.289586 7.620001 L 24.810593 6.441355 C 24.762156 6.29066 24.665281 6.215313 24.514586 6.215313 C 24.363892 6.215313 24.267017 6.29066 24.21858 6.441355 L 23.766496 7.620001 L 23.179864 9.164619 C 23.115281 9.266876 23.120663 9.363751 23.19601 9.460626 C 23.271357 9.546737 23.36285 9.589792 23.470489 9.589792 Z M 42.980038 10.816876 L 48.146705 10.816876 C 48.222052 10.816876 48.292017 10.854549 48.361982 10.919133 C 48.431948 10.983716 48.464239 11.059063 48.464239 11.13441 L 48.464239 11.403508 C 48.464239 12.372258 48.259726 13.271042 47.850698 14.105244 C 47.447052 14.934063 46.898094 15.666008 46.209205 16.290313 C 45.520316 16.920001 44.739934 17.404376 43.862677 17.74882 C 42.98542 18.098647 42.075871 18.270869 41.123267 18.270869 C 40.202955 18.270869 39.298788 18.098647 38.410767 17.74882 C 37.53351 17.404376 36.742364 16.920001 36.042712 16.290313 C 35.353823 15.666008 34.7941 14.934063 34.379691 14.105244 C 33.965281 13.271042 33.760767 12.372258 33.760767 11.403508 L 33.760767 6.285278 C 33.760767 5.343438 33.965281 4.471563 34.379691 3.664272 C 34.7941 2.85698 35.353823 2.146563 36.042712 1.538403 C 36.742364 0.924862 37.53351 0.445869 38.410767 0.0960423 C 39.298788 -0.248402 40.202955 -0.420624 41.123267 -0.420624 C 42.075871 -0.420624 42.98542 -0.248402 43.862677 0.0960423 C 44.739934 0.445869 45.520316 0.924862 46.209205 1.538403 C 46.898094 2.146563 47.447052 2.85698 47.850698 3.664272 C 48.259726 4.471563 48.464239 5.343438 48.464239 6.285278 L 48.464239 6.694306 C 48.464239 6.785799 48.431948 6.866528 48.361982 6.936494 C 48.292017 7.001077 48.222052 7.033369 48.146705 7.033369 L 42.980038 7.033369 C 42.877781 7.033369 42.786288 6.995695 42.716323 6.92573 C 42.651739 6.845001 42.619448 6.764272 42.619448 6.667397 L 42.619448 6.559758 C 42.619448 6.34448 42.554864 6.134584 42.436462 5.924688 C 42.318059 5.70941 42.172746 5.553334 42.005906 5.445695 C 41.596878 5.203508 41.209378 5.122778 40.848788 5.20889 C 40.482816 5.289619 40.192191 5.467223 39.960767 5.741702 C 39.734725 6.016181 39.621705 6.328334 39.621705 6.694306 L 39.621705 11.177466 C 39.621705 11.559584 39.767017 11.898647 40.057642 12.189272 C 40.342885 12.479897 40.698094 12.630591 41.123267 12.630591 C 41.516149 12.630591 41.860594 12.479897 42.161982 12.189272 C 42.463371 11.898647 42.619448 11.559584 42.619448 11.177466 C 42.619448 10.94066 42.737851 10.816876 42.980038 10.816876 Z M 62.371184 -0.194583 C 62.855559 -0.194583 63.259205 -0.0331243 63.582122 0.289792 C 63.91042 0.618091 64.07726 1.010973 64.07726 1.479202 L 64.07726 16.344133 C 64.07726 16.812362 63.91042 17.216008 63.582122 17.544306 C 63.259205 17.877987 62.855559 18.044827 62.371184 18.044827 L 59.518753 18.044827 C 59.050524 18.044827 58.65226 17.877987 58.329344 17.544306 C 58.006427 17.216008 57.839587 16.812362 57.839587 16.344133 L 57.839587 12.334584 C 57.839587 12.200035 57.76424 12.10316 57.613545 12.043959 L 56.052781 12.043959 C 55.902087 12.087015 55.821358 12.18389 55.79983 12.334584 L 55.79983 16.344133 C 55.79983 16.812362 55.638371 17.216008 55.315455 17.544306 C 54.987156 17.877987 54.594274 18.044827 54.126045 18.044827 L 51.268233 18.044827 C 50.800003 18.044827 50.407121 17.877987 50.078823 17.544306 C 49.755906 17.216008 49.594448 16.812362 49.594448 16.344133 L 49.594448 1.479202 C 49.594448 1.010973 49.755906 0.618091 50.078823 0.289792 C 50.407121 -0.0331243 50.800003 -0.194583 51.268233 -0.194583 L 54.126045 -0.194583 C 54.594274 -0.194583 54.987156 -0.0331243 55.315455 0.289792 C 55.638371 0.618091 55.79983 1.010973 55.79983 1.479202 L 55.79983 5.537188 C 55.832121 5.687883 55.918233 5.779376 56.052781 5.806285 L 57.613545 5.806285 C 57.76424 5.779376 57.839587 5.677119 57.839587 5.51566 L 57.839587 1.479202 C 57.839587 1.010973 58.006427 0.618091 58.329344 0.289792 C 58.65226 -0.0331243 59.050524 -0.194583 59.518753 -0.194583 Z M 71.891844 4.789098 C 71.843406 4.789098 71.805733 4.810626 71.773441 4.859063 C 71.746531 4.907501 71.730385 4.939792 71.730385 4.972084 L 71.730385 6.462883 C 71.730385 6.559758 71.784205 6.602813 71.891844 6.602813 L 75.217885 6.602813 C 75.524656 6.602813 75.777608 6.710452 75.987504 6.920348 C 76.202781 7.130244 76.31042 7.383195 76.31042 7.689966 L 76.31042 10.160279 C 76.31042 10.461667 76.202781 10.720001 75.987504 10.929897 C 75.777608 11.139792 75.524656 11.247431 75.217885 11.247431 L 71.891844 11.247431 C 71.784205 11.247431 71.730385 11.301251 71.730385 11.403508 L 71.730385 12.856633 C 71.730385 12.964272 71.784205 13.018091 71.891844 13.018091 L 76.488024 13.018091 C 76.821705 13.018091 77.106948 13.136494 77.338372 13.378681 C 77.575177 13.620869 77.69358 13.906112 77.69358 14.239792 L 77.69358 16.774688 C 77.69358 17.108369 77.575177 17.38823 77.338372 17.619654 C 77.106948 17.845695 76.821705 17.953334 76.488024 17.953334 L 67.220316 17.953334 C 66.752087 17.953334 66.359205 17.781112 66.04167 17.425904 C 65.724135 17.065313 65.568059 16.554029 65.568059 15.892049 L 65.568059 1.145522 C 65.568059 0.887188 65.724135 0.612709 66.04167 0.322084 C 66.359205 0.0368409 66.752087 -0.108472 67.220316 -0.108472 L 76.488024 -0.108472 C 76.821705 -0.108472 77.106948 0.00993122 77.338372 0.235973 C 77.575177 0.462015 77.69358 0.741876 77.69358 1.070174 L 77.69358 3.610452 C 77.69358 3.927987 77.575177 4.202466 77.338372 4.439272 C 77.106948 4.670695 76.821705 4.789098 76.488024 4.789098 Z M 89.67917 11.882501 C 90.098962 11.882501 90.45417 12.038577 90.750177 12.356112 C 91.046184 12.673647 91.191497 13.045001 91.191497 13.470174 L 91.191497 16.505591 C 91.191497 16.914619 91.046184 17.264445 90.750177 17.55507 C 90.45417 17.851077 90.098962 18.001772 89.67917 18.001772 L 80.680559 18.001772 C 80.196184 18.001772 79.82483 17.851077 79.566497 17.55507 C 79.308163 17.264445 79.184379 16.914619 79.184379 16.505591 L 79.184379 1.705244 C 79.184379 1.226251 79.335073 0.801077 79.647226 0.429723 C 79.959379 0.0583687 80.352261 -0.129999 80.836636 -0.129999 L 83.463024 -0.129999 C 83.931254 -0.129999 84.345663 0.0583687 84.711636 0.429723 C 85.072226 0.801077 85.255212 1.226251 85.255212 1.705244 L 85.255212 11.882501 Z M 89.67917 11.882501 " stroke="#b2edef" stroke-width="0.368334" stroke-opacity="1" stroke-miterlimit="4"/></g></svg>