<svg xmlns="http://www.w3.org/2000/svg" xmlns:xlink="http://www.w3.org/1999/xlink" width="422" zoomAndPan="magnify" viewBox="0 0 316.5 58.499998" height="78" preserveAspectRatio="xMidYMid meet" version="1.0"><defs><g/><clipPath id="bd63f595b9"><path d="M 1.09375 0 L 314.910156 0 L 314.910156 58.003906 L 1.09375 58.003906 Z M 1.09375 0 " clip-rule="nonzero"/></clipPath><clipPath id="bf5479f536"><path d="M 171 4 L 314.910156 4 L 314.910156 49 L 171 49 Z M 171 4 " clip-rule="nonzero"/></clipPath><clipPath id="588bce0ffe"><path d="M 1.09375 11 L 27 11 L 27 44 L 1.09375 44 Z M 1.09375 11 " clip-rule="nonzero"/></clipPath><clipPath id="c54ae502bd"><path d="M 1.09375 5 L 169 5 L 169 47 L 1.09375 47 Z M 1.09375 5 " clip-rule="nonzero"/></clipPath></defs><g clip-path="url(#bd63f595b9)"><path fill="#ffffff" d="M 1.09375 0 L 314.910156 0 L 314.910156 58.003906 L 1.09375 58.003906 Z M 1.09375 0 " fill-opacity="1" fill-rule="nonzero"/><path fill="#ffffff" d="M 1.09375 0 L 314.910156 0 L 314.910156 58.003906 L 1.09375 58.003906 Z M 1.09375 0 " fill-opacity="1" fill-rule="nonzero"/></g><g fill="#ffa7e4" fill-opacity="1"><g transform="translate(173.209298, 44.171654)"><g><path d="M 17.65625 -13.203125 L 27.15625 -13.203125 C 27.289062 -13.203125 27.421875 -13.140625 27.546875 -13.015625 C 27.671875 -12.890625 27.734375 -12.753906 27.734375 -12.609375 L 27.734375 -12.125 C 27.734375 -10.34375 27.359375 -8.6875 26.609375 -7.15625 C 25.859375 -5.632812 24.847656 -4.296875 23.578125 -3.140625 C 22.316406 -1.992188 20.878906 -1.097656 19.265625 -0.453125 C 17.660156 0.179688 15.984375 0.5 14.234375 0.5 C 12.546875 0.5 10.890625 0.179688 9.265625 -0.453125 C 7.640625 -1.097656 6.1875 -1.992188 4.90625 -3.140625 C 3.632812 -4.296875 2.613281 -5.632812 1.84375 -7.15625 C 1.082031 -8.6875 0.703125 -10.34375 0.703125 -12.125 L 0.703125 -21.53125 C 0.703125 -23.25 1.082031 -24.847656 1.84375 -26.328125 C 2.613281 -27.816406 3.632812 -29.125 4.90625 -30.25 C 6.1875 -31.375 7.640625 -32.253906 9.265625 -32.890625 C 10.890625 -33.535156 12.546875 -33.859375 14.234375 -33.859375 C 15.984375 -33.859375 17.660156 -33.535156 19.265625 -32.890625 C 20.878906 -32.253906 22.316406 -31.375 23.578125 -30.25 C 24.847656 -29.125 25.859375 -27.816406 26.609375 -26.328125 C 27.359375 -24.847656 27.734375 -23.25 27.734375 -21.53125 L 27.734375 -20.78125 C 27.734375 -20.613281 27.671875 -20.46875 27.546875 -20.34375 C 27.421875 -20.21875 27.289062 -20.15625 27.15625 -20.15625 L 17.65625 -20.15625 C 17.457031 -20.15625 17.296875 -20.222656 17.171875 -20.359375 C 17.046875 -20.503906 16.984375 -20.65625 16.984375 -20.8125 L 16.984375 -21.03125 C 16.984375 -21.414062 16.875 -21.800781 16.65625 -22.1875 C 16.4375 -22.582031 16.171875 -22.875 15.859375 -23.0625 C 15.109375 -23.507812 14.398438 -23.65625 13.734375 -23.5 C 13.066406 -23.351562 12.523438 -23.03125 12.109375 -22.53125 C 11.703125 -22.03125 11.5 -21.445312 11.5 -20.78125 L 11.5 -12.53125 C 11.5 -11.84375 11.757812 -11.226562 12.28125 -10.6875 C 12.8125 -10.144531 13.460938 -9.875 14.234375 -9.875 C 14.960938 -9.875 15.601562 -10.144531 16.15625 -10.6875 C 16.707031 -11.226562 16.984375 -11.84375 16.984375 -12.53125 C 16.984375 -12.976562 17.207031 -13.203125 17.65625 -13.203125 Z M 17.65625 -13.203125 "/></g></g></g><g fill="#ffa7e4" fill-opacity="1"><g transform="translate(201.644195, 44.171654)"><g><path d="M 24.859375 -33.4375 C 25.742188 -33.4375 26.484375 -33.132812 27.078125 -32.53125 C 27.679688 -31.9375 27.984375 -31.210938 27.984375 -30.359375 L 27.984375 -3.046875 C 27.984375 -2.179688 27.679688 -1.441406 27.078125 -0.828125 C 26.484375 -0.222656 25.742188 0.078125 24.859375 0.078125 L 19.609375 0.078125 C 18.753906 0.078125 18.023438 -0.222656 17.421875 -0.828125 C 16.828125 -1.441406 16.53125 -2.179688 16.53125 -3.046875 L 16.53125 -10.40625 C 16.53125 -10.65625 16.390625 -10.835938 16.109375 -10.953125 L 13.234375 -10.953125 C 12.960938 -10.867188 12.8125 -10.6875 12.78125 -10.40625 L 12.78125 -3.046875 C 12.78125 -2.179688 12.484375 -1.441406 11.890625 -0.828125 C 11.296875 -0.222656 10.566406 0.078125 9.703125 0.078125 L 4.453125 0.078125 C 3.597656 0.078125 2.867188 -0.222656 2.265625 -0.828125 C 1.671875 -1.441406 1.375 -2.179688 1.375 -3.046875 L 1.375 -30.359375 C 1.375 -31.210938 1.671875 -31.9375 2.265625 -32.53125 C 2.867188 -33.132812 3.597656 -33.4375 4.453125 -33.4375 L 9.703125 -33.4375 C 10.566406 -33.4375 11.296875 -33.132812 11.890625 -32.53125 C 12.484375 -31.9375 12.78125 -31.210938 12.78125 -30.359375 L 12.78125 -22.90625 C 12.832031 -22.625 12.984375 -22.457031 13.234375 -22.40625 L 16.109375 -22.40625 C 16.390625 -22.457031 16.53125 -22.632812 16.53125 -22.9375 L 16.53125 -30.359375 C 16.53125 -31.210938 16.828125 -31.9375 17.421875 -32.53125 C 18.023438 -33.132812 18.753906 -33.4375 19.609375 -33.4375 Z M 24.859375 -33.4375 "/></g></g></g><g fill="#ffa7e4" fill-opacity="1"><g transform="translate(230.995009, 44.171654)"><g><path d="M 12.984375 -24.28125 C 12.898438 -24.28125 12.832031 -24.238281 12.78125 -24.15625 C 12.726562 -24.070312 12.703125 -24 12.703125 -23.9375 L 12.703125 -21.1875 C 12.703125 -21.019531 12.796875 -20.9375 12.984375 -20.9375 L 19.109375 -20.9375 C 19.671875 -20.9375 20.144531 -20.742188 20.53125 -20.359375 C 20.914062 -19.972656 21.109375 -19.503906 21.109375 -18.953125 L 21.109375 -14.40625 C 21.109375 -13.851562 20.914062 -13.378906 20.53125 -12.984375 C 20.144531 -12.597656 19.671875 -12.40625 19.109375 -12.40625 L 12.984375 -12.40625 C 12.796875 -12.40625 12.703125 -12.3125 12.703125 -12.125 L 12.703125 -9.453125 C 12.703125 -9.253906 12.796875 -9.15625 12.984375 -9.15625 L 21.4375 -9.15625 C 22.050781 -9.15625 22.570312 -8.929688 23 -8.484375 C 23.4375 -8.046875 23.65625 -7.519531 23.65625 -6.90625 L 23.65625 -2.25 C 23.65625 -1.632812 23.4375 -1.117188 23 -0.703125 C 22.570312 -0.285156 22.050781 -0.078125 21.4375 -0.078125 L 4.40625 -0.078125 C 3.550781 -0.078125 2.832031 -0.40625 2.25 -1.0625 C 1.664062 -1.71875 1.375 -2.65625 1.375 -3.875 L 1.375 -30.984375 C 1.375 -31.453125 1.664062 -31.945312 2.25 -32.46875 C 2.832031 -33 3.550781 -33.265625 4.40625 -33.265625 L 21.4375 -33.265625 C 22.050781 -33.265625 22.570312 -33.054688 23 -32.640625 C 23.4375 -32.222656 23.65625 -31.710938 23.65625 -31.109375 L 23.65625 -26.4375 C 23.65625 -25.851562 23.4375 -25.347656 23 -24.921875 C 22.570312 -24.492188 22.050781 -24.28125 21.4375 -24.28125 Z M 12.984375 -24.28125 "/></g></g></g><g fill="#ffa7e4" fill-opacity="1"><g transform="translate(256.01606, 44.171654)"><g><path d="M 14.578125 -34.8125 C 16.710938 -34.8125 18.519531 -34.570312 20 -34.09375 C 21.488281 -33.625 22.71875 -33.019531 23.6875 -32.28125 C 24.664062 -31.550781 25.429688 -30.769531 25.984375 -29.9375 C 26.535156 -29.101562 26.941406 -28.3125 27.203125 -27.5625 C 27.472656 -26.8125 27.648438 -26.21875 27.734375 -25.78125 C 27.785156 -25.46875 27.742188 -25.207031 27.609375 -25 C 27.472656 -24.789062 27.289062 -24.675781 27.0625 -24.65625 L 16.859375 -23.234375 C 16.390625 -23.234375 16.070312 -23.46875 15.90625 -23.9375 C 15.707031 -24.5 15.375 -24.910156 14.90625 -25.171875 C 14.4375 -25.429688 14.035156 -25.5625 13.703125 -25.5625 C 13.253906 -25.5625 12.757812 -25.375 12.21875 -25 C 11.675781 -24.625 11.40625 -24.035156 11.40625 -23.234375 C 11.40625 -22.566406 11.59375 -22.070312 11.96875 -21.75 C 12.34375 -21.4375 12.78125 -21.226562 13.28125 -21.125 C 13.78125 -21.03125 14.210938 -20.984375 14.578125 -20.984375 C 15.265625 -20.984375 16.164062 -20.972656 17.28125 -20.953125 C 18.394531 -20.941406 19.566406 -20.804688 20.796875 -20.546875 C 22.035156 -20.285156 23.203125 -19.800781 24.296875 -19.09375 C 25.390625 -18.382812 26.285156 -17.34375 26.984375 -15.96875 C 27.679688 -14.59375 28.03125 -12.78125 28.03125 -10.53125 C 28.03125 -8.257812 27.660156 -6.34375 26.921875 -4.78125 C 26.179688 -3.226562 25.222656 -1.992188 24.046875 -1.078125 C 22.867188 -0.160156 21.582031 0.492188 20.1875 0.890625 C 18.800781 1.296875 17.457031 1.5 16.15625 1.5 C 13.550781 1.5 11.375 1.238281 9.625 0.71875 C 7.875 0.207031 6.4375 -0.488281 5.3125 -1.375 C 4.1875 -2.257812 3.289062 -3.253906 2.625 -4.359375 C 1.957031 -5.472656 1.414062 -6.628906 1 -7.828125 C 0.632812 -8.460938 0.773438 -8.851562 1.421875 -9 L 12.578125 -10.328125 C 12.878906 -10.378906 13.09375 -10.363281 13.21875 -10.28125 C 13.34375 -10.195312 13.429688 -10.070312 13.484375 -9.90625 C 13.710938 -9.070312 14.054688 -8.550781 14.515625 -8.34375 C 14.972656 -8.132812 15.367188 -8.03125 15.703125 -8.03125 C 16.285156 -8.03125 16.8125 -8.242188 17.28125 -8.671875 C 17.75 -9.109375 17.984375 -9.660156 17.984375 -10.328125 C 17.984375 -11.023438 17.738281 -11.566406 17.25 -11.953125 C 16.769531 -12.335938 16.179688 -12.53125 15.484375 -12.53125 L 12.984375 -12.53125 C 10.660156 -12.53125 8.566406 -12.972656 6.703125 -13.859375 C 4.847656 -14.753906 3.382812 -16.054688 2.3125 -17.765625 C 1.238281 -19.472656 0.703125 -21.53125 0.703125 -23.9375 C 0.703125 -25.882812 1.019531 -27.503906 1.65625 -28.796875 C 2.300781 -30.085938 3.132812 -31.128906 4.15625 -31.921875 C 5.1875 -32.710938 6.285156 -33.316406 7.453125 -33.734375 C 8.617188 -34.148438 9.726562 -34.425781 10.78125 -34.5625 C 11.84375 -34.695312 12.71875 -34.769531 13.40625 -34.78125 C 14.101562 -34.800781 14.492188 -34.8125 14.578125 -34.8125 Z M 14.578125 -34.8125 "/></g></g></g><g fill="#ffa7e4" fill-opacity="1"><g transform="translate(284.742385, 44.171654)"><g><path d="M 14.578125 -34.8125 C 16.710938 -34.8125 18.519531 -34.570312 20 -34.09375 C 21.488281 -33.625 22.71875 -33.019531 23.6875 -32.28125 C 24.664062 -31.550781 25.429688 -30.769531 25.984375 -29.9375 C 26.535156 -29.101562 26.941406 -28.3125 27.203125 -27.5625 C 27.472656 -26.8125 27.648438 -26.21875 27.734375 -25.78125 C 27.785156 -25.46875 27.742188 -25.207031 27.609375 -25 C 27.472656 -24.789062 27.289062 -24.675781 27.0625 -24.65625 L 16.859375 -23.234375 C 16.390625 -23.234375 16.070312 -23.46875 15.90625 -23.9375 C 15.707031 -24.5 15.375 -24.910156 14.90625 -25.171875 C 14.4375 -25.429688 14.035156 -25.5625 13.703125 -25.5625 C 13.253906 -25.5625 12.757812 -25.375 12.21875 -25 C 11.675781 -24.625 11.40625 -24.035156 11.40625 -23.234375 C 11.40625 -22.566406 11.59375 -22.070312 11.96875 -21.75 C 12.34375 -21.4375 12.78125 -21.226562 13.28125 -21.125 C 13.78125 -21.03125 14.210938 -20.984375 14.578125 -20.984375 C 15.265625 -20.984375 16.164062 -20.972656 17.28125 -20.953125 C 18.394531 -20.941406 19.566406 -20.804688 20.796875 -20.546875 C 22.035156 -20.285156 23.203125 -19.800781 24.296875 -19.09375 C 25.390625 -18.382812 26.285156 -17.34375 26.984375 -15.96875 C 27.679688 -14.59375 28.03125 -12.78125 28.03125 -10.53125 C 28.03125 -8.257812 27.660156 -6.34375 26.921875 -4.78125 C 26.179688 -3.226562 25.222656 -1.992188 24.046875 -1.078125 C 22.867188 -0.160156 21.582031 0.492188 20.1875 0.890625 C 18.800781 1.296875 17.457031 1.5 16.15625 1.5 C 13.550781 1.5 11.375 1.238281 9.625 0.71875 C 7.875 0.207031 6.4375 -0.488281 5.3125 -1.375 C 4.1875 -2.257812 3.289062 -3.253906 2.625 -4.359375 C 1.957031 -5.472656 1.414062 -6.628906 1 -7.828125 C 0.632812 -8.460938 0.773438 -8.851562 1.421875 -9 L 12.578125 -10.328125 C 12.878906 -10.378906 13.09375 -10.363281 13.21875 -10.28125 C 13.34375 -10.195312 13.429688 -10.070312 13.484375 -9.90625 C 13.710938 -9.070312 14.054688 -8.550781 14.515625 -8.34375 C 14.972656 -8.132812 15.367188 -8.03125 15.703125 -8.03125 C 16.285156 -8.03125 16.8125 -8.242188 17.28125 -8.671875 C 17.75 -9.109375 17.984375 -9.660156 17.984375 -10.328125 C 17.984375 -11.023438 17.738281 -11.566406 17.25 -11.953125 C 16.769531 -12.335938 16.179688 -12.53125 15.484375 -12.53125 L 12.984375 -12.53125 C 10.660156 -12.53125 8.566406 -12.972656 6.703125 -13.859375 C 4.847656 -14.753906 3.382812 -16.054688 2.3125 -17.765625 C 1.238281 -19.472656 0.703125 -21.53125 0.703125 -23.9375 C 0.703125 -25.882812 1.019531 -27.503906 1.65625 -28.796875 C 2.300781 -30.085938 3.132812 -31.128906 4.15625 -31.921875 C 5.1875 -32.710938 6.285156 -33.316406 7.453125 -33.734375 C 8.617188 -34.148438 9.726562 -34.425781 10.78125 -34.5625 C 11.84375 -34.695312 12.71875 -34.769531 13.40625 -34.78125 C 14.101562 -34.800781 14.492188 -34.8125 14.578125 -34.8125 Z M 14.578125 -34.8125 "/></g></g></g><g clip-path="url(#bf5479f536)"><path stroke-linecap="butt" transform="matrix(0.743644, 0, 0, 0.743644, 158.002112, 10.411016)" fill="none" stroke-linejoin="miter" d="M 46.117178 26.257838 L 58.886854 26.257838 C 59.070704 26.257838 59.244048 26.336631 59.406887 26.504722 C 59.580231 26.66756 59.664276 26.846157 59.664276 27.03526 L 59.664276 27.707624 C 59.664276 30.092418 59.160003 32.319626 58.146203 34.378743 C 57.142908 36.427354 55.792926 38.229082 54.08575 39.778672 C 52.394333 41.32301 50.461284 42.525912 48.291857 43.38738 C 46.132936 44.243594 43.879464 44.669075 41.526187 44.669075 C 39.246451 44.669075 37.01399 44.243594 34.828804 43.38738 C 32.648872 42.525912 30.700065 41.32301 28.97713 39.778672 C 27.264701 38.229082 25.893707 36.427354 24.864149 34.378743 C 23.839843 32.319626 23.330317 30.092418 23.330317 27.707624 L 23.330317 15.048257 C 23.330317 12.731751 23.839843 10.578082 24.864149 8.582 C 25.893707 6.585917 27.264701 4.831465 28.97713 3.318644 C 30.700065 1.805824 32.648872 0.623933 34.828804 -0.232282 C 37.01399 -1.088496 39.246451 -1.51923 41.526187 -1.51923 C 43.879464 -1.51923 46.132936 -1.088496 48.291857 -0.232282 C 50.461284 0.623933 52.394333 1.805824 54.08575 3.318644 C 55.792926 4.831465 57.142908 6.585917 58.146203 8.582 C 59.160003 10.578082 59.664276 12.731751 59.664276 15.048257 L 59.664276 16.062057 C 59.664276 16.28793 59.580231 16.487538 59.406887 16.660882 C 59.244048 16.82372 59.070704 16.907766 58.886854 16.907766 L 46.117178 16.907766 C 45.854535 16.907766 45.633915 16.818467 45.460571 16.634618 C 45.297733 16.440262 45.21894 16.235401 45.21894 16.004276 L 45.21894 15.731128 C 45.21894 15.20059 45.066608 14.680558 44.767195 14.160526 C 44.473036 13.629988 44.121095 13.241277 43.711372 12.983887 C 42.702825 12.385063 41.746807 12.185454 40.843317 12.395568 C 39.950332 12.595177 39.220186 13.036416 38.652879 13.708781 C 38.101329 14.381145 37.822928 15.169073 37.822928 16.062057 L 37.822928 27.145569 C 37.822928 28.085829 38.174869 28.91578 38.889257 29.645926 C 39.598391 30.365566 40.475617 30.728013 41.526187 30.728013 C 42.492711 30.728013 43.348926 30.365566 44.094831 29.645926 C 44.840735 28.91578 45.21894 28.085829 45.21894 27.145569 C 45.21894 26.551997 45.518353 26.257838 46.117178 26.257838 Z M 94.03367 -0.957175 C 95.226067 -0.957175 96.224108 -0.557958 97.027794 0.245728 C 97.836733 1.044161 98.246455 2.026444 98.246455 3.18207 L 98.246455 39.915246 C 98.246455 41.070873 97.836733 42.058409 97.027794 42.877853 C 96.224108 43.697298 95.226067 44.10702 94.03367 44.10702 L 86.979093 44.10702 C 85.823466 44.10702 84.841183 43.697298 84.04275 42.877853 C 83.239064 42.058409 82.839848 41.070873 82.839848 39.915246 L 82.839848 30.003119 C 82.839848 29.666937 82.650745 29.425306 82.277793 29.278226 L 78.422201 29.278226 C 78.049249 29.388536 77.839135 29.630167 77.797112 30.003119 L 77.797112 39.915246 C 77.797112 41.070873 77.392643 42.058409 76.59421 42.877853 C 75.790524 43.697298 74.808241 44.10702 73.652614 44.10702 L 66.598037 44.10702 C 65.44241 44.10702 64.460128 43.697298 63.661695 42.877853 C 62.858009 42.058409 62.458792 41.070873 62.458792 39.915246 L 62.458792 3.18207 C 62.458792 2.026444 62.858009 1.044161 63.661695 0.245728 C 64.460128 -0.557958 65.44241 -0.957175 66.598037 -0.957175 L 73.652614 -0.957175 C 74.808241 -0.957175 75.790524 -0.557958 76.59421 0.245728 C 77.392643 1.044161 77.797112 2.026444 77.797112 3.18207 L 77.797112 13.204507 C 77.875905 13.577459 78.086019 13.798079 78.422201 13.871619 L 82.277793 13.871619 C 82.650745 13.798079 82.839848 13.556448 82.839848 13.146726 L 82.839848 3.18207 C 82.839848 2.026444 83.239064 1.044161 84.04275 0.245728 C 84.841183 -0.557958 85.823466 -0.957175 86.979093 -0.957175 Z M 117.550677 11.355504 C 117.440367 11.355504 117.345815 11.418538 117.26177 11.534101 C 117.18823 11.644411 117.156713 11.733709 117.156713 11.807249 L 117.156713 15.500002 C 117.156713 15.725875 117.288034 15.841437 117.550677 15.841437 L 125.781892 15.841437 C 126.527796 15.841437 127.158138 16.098827 127.67817 16.618859 C 128.208708 17.138891 128.47135 17.774486 128.47135 18.520391 L 128.47135 24.629454 C 128.47135 25.375359 128.208708 26.010954 127.67817 26.530986 C 127.158138 27.051018 126.527796 27.308408 125.781892 27.308408 L 117.550677 27.308408 C 117.288034 27.308408 117.156713 27.439729 117.156713 27.707624 L 117.156713 31.284815 C 117.156713 31.55271 117.288034 31.684031 117.550677 31.684031 L 128.91259 31.684031 C 129.737287 31.684031 130.441169 31.983444 131.01373 32.587521 C 131.596796 33.17584 131.890955 33.884975 131.890955 34.70442 L 131.890955 40.981575 C 131.890955 41.801019 131.596796 42.494395 131.01373 43.05645 C 130.441169 43.613252 129.737287 43.891653 128.91259 43.891653 L 106.015419 43.891653 C 104.85454 43.891653 103.888015 43.455667 103.100088 42.578441 C 102.317413 41.695962 101.928702 40.430025 101.928702 38.791136 L 101.928702 2.346867 C 101.928702 1.711273 102.317413 1.038908 103.100088 0.32452 C 103.888015 -0.384614 104.85454 -0.741808 106.015419 -0.741808 L 128.91259 -0.741808 C 129.737287 -0.741808 130.441169 -0.458154 131.01373 0.109153 C 131.596796 0.665956 131.890955 1.348826 131.890955 2.173523 L 131.890955 8.445425 C 131.890955 9.2281 131.596796 9.91097 131.01373 10.494037 C 130.441169 11.07185 129.737287 11.355504 128.91259 11.355504 Z M 153.327834 -2.806178 C 156.201142 -2.806178 158.633212 -2.485754 160.629294 -1.844906 C 162.625377 -1.219817 164.274772 -0.405626 165.577479 0.587163 C 166.890691 1.569446 167.920249 2.620016 168.666154 3.744125 C 169.412059 4.862982 169.963608 5.929311 170.320802 6.943111 C 170.677995 7.946405 170.909121 8.744838 171.019431 9.348916 C 171.09297 9.758638 171.029936 10.105326 170.840834 10.38898 C 170.656984 10.662128 170.415353 10.814461 170.11594 10.851231 L 156.406004 12.752762 C 155.765156 12.752762 155.339675 12.437591 155.119055 11.807249 C 154.856413 11.061344 154.404668 10.509795 153.769073 10.152602 C 153.138731 9.800661 152.602941 9.622064 152.156448 9.622064 C 151.552371 9.622064 150.885259 9.874201 150.160366 10.38898 C 149.43022 10.888 149.06252 11.675928 149.06252 12.752762 C 149.06252 13.656252 149.314657 14.318111 149.81893 14.748845 C 150.328457 15.174326 150.916776 15.457979 151.578635 15.594554 C 152.256253 15.720622 152.839319 15.788909 153.327834 15.788909 C 154.257588 15.788909 155.470996 15.794162 156.968058 15.815173 C 158.459868 15.830932 160.035722 16.020034 161.695623 16.371975 C 163.355523 16.729169 164.920872 17.380522 166.396923 18.331288 C 167.872974 19.276801 169.075876 20.674059 170.005631 22.523062 C 170.945891 24.377318 171.413394 26.81464 171.413394 29.840281 C 171.413394 32.902692 170.919626 35.476589 169.926838 37.56197 C 168.939302 39.647351 167.652354 41.312504 166.055488 42.552177 C 164.469127 43.781343 162.74094 44.663822 160.876178 45.204866 C 159.01667 45.740656 157.20969 46.008552 155.449985 46.008552 C 151.941082 46.008552 149.009992 45.661863 146.656715 44.968487 C 144.308691 44.285617 142.375643 43.35061 140.862822 42.15296 C 139.350002 40.960563 138.147099 39.615834 137.254115 38.124025 C 136.36113 36.626963 135.630984 35.077372 135.068929 33.475253 C 134.585667 32.619038 134.769517 32.093753 135.625731 31.904651 L 150.638375 30.113429 C 151.048097 30.039889 151.331751 30.060901 151.499842 30.181716 C 151.673186 30.292026 151.794002 30.454864 151.867542 30.670231 C 152.166954 31.794341 152.623952 32.49297 153.233283 32.776624 C 153.853119 33.049772 154.388909 33.186346 154.835402 33.186346 C 155.618076 33.186346 156.321958 32.902692 156.9523 32.324879 C 157.587895 31.741813 157.908318 31.006414 157.908318 30.113429 C 157.908318 29.183675 157.582642 28.458782 156.926036 27.93875 C 156.279935 27.408212 155.492008 27.145569 154.562253 27.145569 L 151.195177 27.145569 C 148.064479 27.145569 145.243699 26.546745 142.738089 25.354348 C 140.237733 24.161951 138.267915 22.418005 136.828634 20.117257 C 135.399859 17.821762 134.685471 15.05351 134.685471 11.807249 C 134.685471 9.19133 135.110952 7.021903 135.967167 5.288463 C 136.828634 3.54977 137.942238 2.147259 139.318484 1.091436 C 140.705237 0.0251079 142.181287 -0.783831 143.746636 -1.340633 C 145.317238 -1.907941 146.809048 -2.280893 148.23257 -2.464743 C 149.650839 -2.653845 150.827477 -2.758902 151.757232 -2.774661 C 152.686986 -2.795672 153.212271 -2.806178 153.327834 -2.806178 Z M 191.957288 -2.806178 C 194.830597 -2.806178 197.262666 -2.485754 199.258749 -1.844906 C 201.254832 -1.219817 202.904226 -0.405626 204.206933 0.587163 C 205.520145 1.569446 206.549704 2.620016 207.295609 3.744125 C 208.041513 4.862982 208.593062 5.929311 208.950256 6.943111 C 209.30745 7.946405 209.538575 8.744838 209.648885 9.348916 C 209.722425 9.758638 209.659391 10.105326 209.470288 10.38898 C 209.286438 10.662128 209.044807 10.814461 208.745395 10.851231 L 195.035458 12.752762 C 194.39461 12.752762 193.96913 12.437591 193.74851 11.807249 C 193.485867 11.061344 193.034122 10.509795 192.398528 10.152602 C 191.768186 9.800661 191.232395 9.622064 190.78065 9.622064 C 190.181825 9.622064 189.514713 9.874201 188.78982 10.38898 C 188.059674 10.888 187.691975 11.675928 187.691975 12.752762 C 187.691975 13.656252 187.944111 14.318111 188.448385 14.748845 C 188.957911 15.174326 189.54623 15.457979 190.208089 15.594554 C 190.885707 15.720622 191.468773 15.788909 191.957288 15.788909 C 192.887043 15.788909 194.100451 15.794162 195.59226 15.815173 C 197.089322 15.830932 198.665177 16.020034 200.325077 16.371975 C 201.984978 16.729169 203.550327 17.380522 205.026378 18.331288 C 206.502428 19.276801 207.705331 20.674059 208.635085 22.523062 C 209.575345 24.377318 210.042849 26.81464 210.042849 29.840281 C 210.042849 32.902692 209.549081 35.476589 208.55104 37.56197 C 207.568757 39.647351 206.281809 41.312504 204.684942 42.552177 C 203.098582 43.781343 201.370394 44.663822 199.505633 45.204866 C 197.646124 45.740656 195.833891 46.008552 194.079439 46.008552 C 190.570536 46.008552 187.639446 45.661863 185.28617 44.968487 C 182.938146 44.285617 181.005097 43.35061 179.492277 42.15296 C 177.979456 40.960563 176.776554 39.615834 175.883569 38.124025 C 174.990585 36.626963 174.260439 35.077372 173.698384 33.475253 C 173.215122 32.619038 173.398971 32.093753 174.255186 31.904651 L 189.267829 30.113429 C 189.677552 30.039889 189.961206 30.060901 190.129297 30.181716 C 190.302641 30.292026 190.423456 30.454864 190.496996 30.670231 C 190.796409 31.794341 191.253406 32.49297 191.862737 32.776624 C 192.482573 33.049772 193.018364 33.186346 193.464856 33.186346 C 194.247531 33.186346 194.951412 32.902692 195.581754 32.324879 C 196.217349 31.741813 196.537773 31.006414 196.537773 30.113429 C 196.537773 29.183675 196.212096 28.458782 195.55549 27.93875 C 194.90939 27.408212 194.116209 27.145569 193.186455 27.145569 L 189.824631 27.145569 C 186.693933 27.145569 183.873153 26.546745 181.367544 25.354348 C 178.867188 24.161951 176.897369 22.418005 175.458088 20.117257 C 174.029313 17.821762 173.314926 15.05351 173.314926 11.807249 C 173.314926 9.19133 173.740407 7.021903 174.596621 5.288463 C 175.452835 3.54977 176.571692 2.147259 177.947939 1.091436 C 179.334691 0.0251079 180.810742 -0.783831 182.376091 -1.340633 C 183.94144 -1.907941 185.438502 -2.280893 186.862024 -2.464743 C 188.280294 -2.653845 189.456932 -2.758902 190.386686 -2.774661 C 191.316441 -2.795672 191.841726 -2.806178 191.957288 -2.806178 Z M 191.957288 -2.806178 " stroke="#ff66c4" stroke-width="0.909997" stroke-opacity="1" stroke-miterlimit="4"/></g><g clip-path="url(#588bce0ffe)"><g fill="#5ce1e6" fill-opacity="1"><g transform="translate(-0.304535, 43.775063)"><g><path d="M 26.625 -3.453125 C 26.832031 -2.503906 26.660156 -1.710938 26.109375 -1.078125 C 25.554688 -0.441406 24.882812 -0.125 24.09375 -0.125 L 17.515625 -0.125 C 16.835938 -0.125 16.125 -0.40625 15.375 -0.96875 C 14.632812 -1.539062 14.15625 -2.285156 13.9375 -3.203125 L 12.890625 -8.171875 L 12.5625 -9.828125 C 12.5625 -9.960938 12.476562 -10.03125 12.3125 -10.03125 C 12.175781 -10.03125 12.109375 -9.953125 12.109375 -9.796875 L 12.109375 -3 C 12.109375 -2.675781 12.085938 -2.378906 12.046875 -2.109375 C 12.003906 -1.835938 11.796875 -1.5 11.421875 -1.09375 C 11.148438 -0.769531 10.820312 -0.523438 10.4375 -0.359375 C 10.0625 -0.203125 9.671875 -0.125 9.265625 -0.125 L 4.0625 -0.125 C 3.28125 -0.125 2.609375 -0.398438 2.046875 -0.953125 C 1.492188 -1.503906 1.21875 -2.160156 1.21875 -2.921875 L 1.21875 -28.8125 C 1.21875 -29.976562 1.492188 -30.875 2.046875 -31.5 C 2.609375 -32.125 3.28125 -32.4375 4.0625 -32.4375 L 18.734375 -32.46875 C 20.222656 -32.46875 21.570312 -32.054688 22.78125 -31.234375 C 23.988281 -30.410156 24.945312 -29.242188 25.65625 -27.734375 C 26.375 -26.234375 26.734375 -24.441406 26.734375 -22.359375 C 26.734375 -20.585938 26.46875 -19.03125 25.9375 -17.6875 C 25.414062 -16.351562 24.707031 -15.160156 23.8125 -14.109375 C 23.925781 -13.941406 24.019531 -13.679688 24.09375 -13.328125 Z M 15.8125 -21.296875 C 15.8125 -21.972656 15.570312 -22.546875 15.09375 -23.015625 C 14.625 -23.492188 14.0625 -23.734375 13.40625 -23.734375 L 12.640625 -23.734375 C 12.285156 -23.734375 12.109375 -23.554688 12.109375 -23.203125 L 12.109375 -18.859375 C 12.109375 -18.503906 12.285156 -18.328125 12.640625 -18.328125 L 13.40625 -18.328125 C 14.0625 -18.328125 14.625 -18.5625 15.09375 -19.03125 C 15.570312 -19.507812 15.8125 -20.078125 15.8125 -20.734375 Z M 15.8125 -21.296875 "/></g></g></g></g><g fill="#5ce1e6" fill-opacity="1"><g transform="translate(27.78103, 43.775063)"><g><path d="M 31.015625 -3.40625 C 31.148438 -2.8125 31.09375 -2.222656 30.84375 -1.640625 C 30.601562 -1.054688 30.210938 -0.617188 29.671875 -0.328125 C 29.316406 -0.109375 28.910156 0 28.453125 0 L 22.921875 0 C 22.160156 0 21.585938 -0.226562 21.203125 -0.6875 C 20.828125 -1.144531 20.492188 -1.753906 20.203125 -2.515625 L 18.984375 -5.6875 L 12.765625 -5.6875 L 11.578125 -2.515625 C 11.285156 -1.753906 10.945312 -1.148438 10.5625 -0.703125 C 10.1875 -0.265625 9.617188 -0.046875 8.859375 -0.046875 L 3.328125 -0.046875 C 2.898438 -0.046875 2.550781 -0.113281 2.28125 -0.25 C 1.675781 -0.519531 1.234375 -0.957031 0.953125 -1.5625 C 0.671875 -2.175781 0.609375 -2.804688 0.765625 -3.453125 L 8.09375 -30.3125 C 8.164062 -30.695312 8.300781 -31.007812 8.5 -31.25 C 8.707031 -31.5 8.910156 -31.691406 9.109375 -31.828125 C 9.535156 -32.171875 10.0625 -32.34375 10.6875 -32.34375 L 21.34375 -32.34375 C 21.632812 -32.34375 21.957031 -32.289062 22.3125 -32.1875 C 22.664062 -32.082031 22.988281 -31.878906 23.28125 -31.578125 C 23.582031 -31.253906 23.78125 -30.921875 23.875 -30.578125 C 23.96875 -30.242188 24.039062 -29.953125 24.09375 -29.703125 Z M 17.796875 -15.078125 C 17.984375 -15.078125 18.128906 -15.15625 18.234375 -15.3125 C 18.347656 -15.476562 18.378906 -15.65625 18.328125 -15.84375 L 17.265625 -18.609375 L 16.421875 -20.734375 C 16.335938 -21.003906 16.160156 -21.140625 15.890625 -21.140625 C 15.617188 -21.140625 15.441406 -21.003906 15.359375 -20.734375 L 14.546875 -18.609375 L 13.5 -15.84375 C 13.382812 -15.65625 13.394531 -15.476562 13.53125 -15.3125 C 13.664062 -15.15625 13.828125 -15.078125 14.015625 -15.078125 Z M 17.796875 -15.078125 "/></g></g></g><g fill="#5ce1e6" fill-opacity="1"><g transform="translate(59.565265, 43.775063)"><g><path d="M 17.234375 -12.890625 L 26.5 -12.890625 C 26.632812 -12.890625 26.757812 -12.828125 26.875 -12.703125 C 27 -12.578125 27.0625 -12.445312 27.0625 -12.3125 L 27.0625 -11.828125 C 27.0625 -10.085938 26.695312 -8.472656 25.96875 -6.984375 C 25.238281 -5.492188 24.253906 -4.1875 23.015625 -3.0625 C 21.785156 -1.9375 20.382812 -1.0625 18.8125 -0.4375 C 17.238281 0.175781 15.601562 0.484375 13.90625 0.484375 C 12.25 0.484375 10.628906 0.175781 9.046875 -0.4375 C 7.460938 -1.0625 6.046875 -1.9375 4.796875 -3.0625 C 3.546875 -4.1875 2.546875 -5.492188 1.796875 -6.984375 C 1.054688 -8.472656 0.6875 -10.085938 0.6875 -11.828125 L 0.6875 -21.015625 C 0.6875 -22.691406 1.054688 -24.253906 1.796875 -25.703125 C 2.546875 -27.148438 3.546875 -28.421875 4.796875 -29.515625 C 6.046875 -30.617188 7.460938 -31.484375 9.046875 -32.109375 C 10.628906 -32.734375 12.25 -33.046875 13.90625 -33.046875 C 15.601562 -33.046875 17.238281 -32.734375 18.8125 -32.109375 C 20.382812 -31.484375 21.785156 -30.617188 23.015625 -29.515625 C 24.253906 -28.421875 25.238281 -27.148438 25.96875 -25.703125 C 26.695312 -24.253906 27.0625 -22.691406 27.0625 -21.015625 L 27.0625 -20.28125 C 27.0625 -20.113281 27 -19.96875 26.875 -19.84375 C 26.757812 -19.726562 26.632812 -19.671875 26.5 -19.671875 L 17.234375 -19.671875 C 17.046875 -19.671875 16.890625 -19.738281 16.765625 -19.875 C 16.640625 -20.007812 16.578125 -20.15625 16.578125 -20.3125 L 16.578125 -20.53125 C 16.578125 -20.90625 16.46875 -21.28125 16.25 -21.65625 C 16.039062 -22.039062 15.785156 -22.328125 15.484375 -22.515625 C 14.753906 -22.953125 14.0625 -23.09375 13.40625 -22.9375 C 12.757812 -22.789062 12.234375 -22.472656 11.828125 -21.984375 C 11.421875 -21.492188 11.21875 -20.925781 11.21875 -20.28125 L 11.21875 -12.234375 C 11.21875 -11.554688 11.472656 -10.953125 11.984375 -10.421875 C 12.503906 -9.890625 13.144531 -9.625 13.90625 -9.625 C 14.601562 -9.625 15.222656 -9.890625 15.765625 -10.421875 C 16.304688 -10.953125 16.578125 -11.554688 16.578125 -12.234375 C 16.578125 -12.671875 16.796875 -12.890625 17.234375 -12.890625 Z M 17.234375 -12.890625 "/></g></g></g><g fill="#5ce1e6" fill-opacity="1"><g transform="translate(87.325667, 43.775063)"><g><path d="M 24.265625 -32.640625 C 25.128906 -32.640625 25.851562 -32.347656 26.4375 -31.765625 C 27.019531 -31.179688 27.3125 -30.46875 27.3125 -29.625 L 27.3125 -2.96875 C 27.3125 -2.125 27.019531 -1.40625 26.4375 -0.8125 C 25.851562 -0.21875 25.128906 0.078125 24.265625 0.078125 L 19.140625 0.078125 C 18.296875 0.078125 17.582031 -0.21875 17 -0.8125 C 16.425781 -1.40625 16.140625 -2.125 16.140625 -2.96875 L 16.140625 -10.15625 C 16.140625 -10.40625 16.003906 -10.582031 15.734375 -10.6875 L 12.921875 -10.6875 C 12.648438 -10.601562 12.503906 -10.425781 12.484375 -10.15625 L 12.484375 -2.96875 C 12.484375 -2.125 12.191406 -1.40625 11.609375 -0.8125 C 11.023438 -0.21875 10.3125 0.078125 9.46875 0.078125 L 4.34375 0.078125 C 3.507812 0.078125 2.800781 -0.21875 2.21875 -0.8125 C 1.632812 -1.40625 1.34375 -2.125 1.34375 -2.96875 L 1.34375 -29.625 C 1.34375 -30.46875 1.632812 -31.179688 2.21875 -31.765625 C 2.800781 -32.347656 3.507812 -32.640625 4.34375 -32.640625 L 9.46875 -32.640625 C 10.3125 -32.640625 11.023438 -32.347656 11.609375 -31.765625 C 12.191406 -31.179688 12.484375 -30.46875 12.484375 -29.625 L 12.484375 -22.359375 C 12.535156 -22.085938 12.679688 -21.921875 12.921875 -21.859375 L 15.734375 -21.859375 C 16.003906 -21.921875 16.140625 -22.097656 16.140625 -22.390625 L 16.140625 -29.625 C 16.140625 -30.46875 16.425781 -31.179688 17 -31.765625 C 17.582031 -32.347656 18.296875 -32.640625 19.140625 -32.640625 Z M 24.265625 -32.640625 "/></g></g></g><g fill="#5ce1e6" fill-opacity="1"><g transform="translate(115.980256, 43.775063)"><g><path d="M 12.6875 -23.6875 C 12.601562 -23.6875 12.53125 -23.644531 12.46875 -23.5625 C 12.414062 -23.488281 12.390625 -23.425781 12.390625 -23.375 L 12.390625 -20.6875 C 12.390625 -20.519531 12.488281 -20.4375 12.6875 -20.4375 L 18.65625 -20.4375 C 19.195312 -20.4375 19.65625 -20.242188 20.03125 -19.859375 C 20.414062 -19.484375 20.609375 -19.023438 20.609375 -18.484375 L 20.609375 -14.0625 C 20.609375 -13.519531 20.414062 -13.054688 20.03125 -12.671875 C 19.65625 -12.296875 19.195312 -12.109375 18.65625 -12.109375 L 12.6875 -12.109375 C 12.488281 -12.109375 12.390625 -12.015625 12.390625 -11.828125 L 12.390625 -9.21875 C 12.390625 -9.03125 12.488281 -8.9375 12.6875 -8.9375 L 20.9375 -8.9375 C 21.53125 -8.9375 22.035156 -8.71875 22.453125 -8.28125 C 22.867188 -7.851562 23.078125 -7.34375 23.078125 -6.75 L 23.078125 -2.1875 C 23.078125 -1.59375 22.867188 -1.09375 22.453125 -0.6875 C 22.035156 -0.28125 21.53125 -0.078125 20.9375 -0.078125 L 4.3125 -0.078125 C 3.46875 -0.078125 2.757812 -0.394531 2.1875 -1.03125 C 1.625 -1.664062 1.34375 -2.582031 1.34375 -3.78125 L 1.34375 -30.234375 C 1.34375 -30.691406 1.625 -31.175781 2.1875 -31.6875 C 2.757812 -32.207031 3.46875 -32.46875 4.3125 -32.46875 L 20.9375 -32.46875 C 21.53125 -32.46875 22.035156 -32.265625 22.453125 -31.859375 C 22.867188 -31.453125 23.078125 -30.953125 23.078125 -30.359375 L 23.078125 -25.8125 C 23.078125 -25.238281 22.867188 -24.738281 22.453125 -24.3125 C 22.035156 -23.894531 21.53125 -23.6875 20.9375 -23.6875 Z M 12.6875 -23.6875 "/></g></g></g><g fill="#5ce1e6" fill-opacity="1"><g transform="translate(140.407786, 43.775063)"><g><path d="M 20.15625 -10.96875 C 20.914062 -10.96875 21.554688 -10.679688 22.078125 -10.109375 C 22.609375 -9.546875 22.875 -8.882812 22.875 -8.125 L 22.875 -2.6875 C 22.875 -1.945312 22.609375 -1.3125 22.078125 -0.78125 C 21.554688 -0.257812 20.914062 0 20.15625 0 L 4.015625 0 C 3.148438 0 2.488281 -0.257812 2.03125 -0.78125 C 1.570312 -1.3125 1.34375 -1.945312 1.34375 -2.6875 L 1.34375 -29.21875 C 1.34375 -30.082031 1.617188 -30.847656 2.171875 -31.515625 C 2.722656 -32.179688 3.4375 -32.515625 4.3125 -32.515625 L 9.015625 -32.515625 C 9.859375 -32.515625 10.601562 -32.179688 11.25 -31.515625 C 11.90625 -30.847656 12.234375 -30.082031 12.234375 -29.21875 L 12.234375 -10.96875 Z M 20.15625 -10.96875 "/></g></g></g><g clip-path="url(#c54ae502bd)"><path stroke-linecap="butt" transform="matrix(0.743644, 0, 0, 0.743644, 1.093226, 10.782838)" fill="none" stroke-linejoin="miter" d="M 35.804127 38.354171 C 36.098286 39.630613 35.872414 40.696942 35.121256 41.558409 C 34.375352 42.414623 33.471861 42.840104 32.416039 42.840104 L 23.554482 42.840104 C 22.645739 42.840104 21.68972 42.456646 20.686426 41.68973 C 19.688385 40.928067 19.042284 39.91952 18.748125 38.674594 L 17.31935 32.019234 L 16.893869 29.776268 C 16.893869 29.587165 16.783559 29.492614 16.562939 29.492614 C 16.384342 29.492614 16.295044 29.608176 16.295044 29.828796 L 16.295044 38.958248 C 16.295044 39.394235 16.263527 39.793451 16.200493 40.155898 C 16.147964 40.523597 15.86431 40.975343 15.360037 41.516386 C 14.99759 41.962878 14.556351 42.299061 14.036319 42.51968 C 13.532045 42.735047 13.00676 42.840104 12.465717 42.840104 L 5.468921 42.840104 C 4.413099 42.840104 3.509608 42.467152 2.763704 41.721247 C 2.012546 40.97009 1.639594 40.087611 1.639594 39.063305 L 1.639594 4.24742 C 1.639594 2.68207 2.012546 1.479168 2.763704 0.643965 C 3.509608 -0.201744 4.413099 -0.621972 5.468921 -0.621972 L 25.193371 -0.679753 C 27.205212 -0.679753 29.022698 -0.122951 30.640576 0.990653 C 32.258453 2.104257 33.550654 3.674859 34.511926 5.702459 C 35.47845 7.719553 35.961712 10.130611 35.961712 12.935632 C 35.961712 15.299415 35.609771 17.384796 34.895384 19.191776 C 34.186249 20.998756 33.23023 22.611381 32.027328 24.034903 C 32.17966 24.25027 32.305729 24.596958 32.416039 25.08022 Z M 21.258987 14.364407 C 21.258987 13.445159 20.938563 12.67299 20.297715 12.042648 C 19.667373 11.4018 18.916216 11.081377 18.044243 11.081377 L 16.998926 11.081377 C 16.531422 11.081377 16.295044 11.317755 16.295044 11.785258 L 16.295044 17.63168 C 16.295044 18.109689 16.531422 18.35132 16.998926 18.35132 L 18.044243 18.35132 C 18.916216 18.35132 19.667373 18.030896 20.297715 17.390049 C 20.938563 16.749201 21.258987 15.992791 21.258987 15.120818 Z M 79.471064 38.411952 C 79.654913 39.210385 79.586626 40.003565 79.255697 40.78624 C 78.924767 41.568915 78.399482 42.157234 77.669336 42.561703 C 77.19658 42.85061 76.650283 42.99769 76.025194 42.99769 L 68.592413 42.99769 C 67.568107 42.99769 66.806444 42.693024 66.296917 42.078441 C 65.792644 41.458605 65.335646 40.633907 64.936429 39.609602 L 63.29754 35.354794 L 54.929751 35.354794 L 53.343391 39.609602 C 52.938921 40.633907 52.487176 41.448099 51.97765 42.052177 C 51.473376 42.651001 50.70646 42.945161 49.682155 42.945161 L 42.249373 42.945161 C 41.666306 42.945161 41.188297 42.85061 40.825851 42.66676 C 40.022165 42.299061 39.428593 41.710741 39.050387 40.891297 C 38.666929 40.071852 38.588137 39.226144 38.808756 38.354171 L 48.64209 2.21982 C 48.7524 1.710293 48.941503 1.295318 49.214651 0.964389 C 49.493052 0.633459 49.760947 0.381322 50.018337 0.202725 C 50.59615 -0.270031 51.305285 -0.506409 52.140488 -0.506409 L 66.459756 -0.506409 C 66.858972 -0.506409 67.294959 -0.432869 67.767715 -0.291042 C 68.245724 -0.149215 68.686964 0.123933 69.08618 0.523149 C 69.485397 0.969641 69.748039 1.416134 69.874108 1.873132 C 70.010682 2.324877 70.110486 2.71884 70.184026 3.044517 Z M 61.705927 22.716438 C 61.963317 22.716438 62.168178 22.611381 62.310005 22.396014 C 62.451832 22.175395 62.488602 21.939016 62.415062 21.68688 L 61.002045 17.967862 L 59.851671 15.120818 C 59.736108 14.758371 59.49973 14.574521 59.132031 14.574521 C 58.774837 14.574521 58.538459 14.758371 58.422896 15.120818 L 57.330303 17.967862 L 55.917287 21.68688 C 55.764954 21.939016 55.780713 22.175395 55.954057 22.396014 C 56.143159 22.611381 56.363779 22.716438 56.621169 22.716438 Z M 103.686699 25.679045 L 116.151711 25.679045 C 116.330308 25.679045 116.498399 25.757838 116.661237 25.920676 C 116.829329 26.078262 116.913374 26.251606 116.913374 26.440708 L 116.913374 27.092062 C 116.913374 29.424327 116.419606 31.593753 115.432071 33.605595 C 114.455041 35.60693 113.131323 37.366635 111.466169 38.874203 C 109.811522 40.387023 107.925749 41.563662 105.808851 42.398865 C 103.702458 43.234068 101.501514 43.654296 99.206019 43.654296 C 96.978811 43.654296 94.798878 43.234068 92.666221 42.398865 C 90.538817 41.563662 88.637286 40.387023 86.956374 38.874203 C 85.280715 37.366635 83.941238 35.60693 82.937944 33.605595 C 81.939903 31.593753 81.440882 29.424327 81.440882 27.092062 L 81.440882 14.73736 C 81.440882 12.478635 81.939903 10.372242 82.937944 8.423435 C 83.941238 6.474628 85.280715 4.762199 86.956374 3.286148 C 88.637286 1.810097 90.538817 0.654471 92.666221 -0.185985 C 94.798878 -1.021188 96.978811 -1.436164 99.206019 -1.436164 C 101.501514 -1.436164 103.702458 -1.021188 105.808851 -0.185985 C 107.925749 0.654471 109.811522 1.810097 111.466169 3.286148 C 113.131323 4.762199 114.455041 6.474628 115.432071 8.423435 C 116.419606 10.372242 116.913374 12.478635 116.913374 14.73736 L 116.913374 15.724895 C 116.913374 15.945515 116.829329 16.139871 116.661237 16.307962 C 116.498399 16.4708 116.330308 16.549593 116.151711 16.549593 L 103.686699 16.549593 C 103.42931 16.549593 103.219196 16.460294 103.045852 16.281697 C 102.888266 16.097848 102.809474 15.892987 102.809474 15.672367 L 102.809474 15.404472 C 102.809474 14.889692 102.662394 14.374913 102.368234 13.87064 C 102.08458 13.350608 101.737892 12.972402 101.338676 12.720266 C 100.35114 12.131946 99.416133 11.942844 98.538907 12.147705 C 97.666934 12.34206 96.952546 12.767541 96.400997 13.4294 C 95.859954 14.086006 95.586806 14.852922 95.586806 15.724895 L 95.586806 26.545765 C 95.586806 27.459761 95.933494 28.273953 96.62687 28.98834 C 97.325499 29.692222 98.181713 30.044163 99.206019 30.044163 C 100.146279 30.044163 100.981482 29.692222 101.711628 28.98834 C 102.441774 28.273953 102.809474 27.459761 102.809474 26.545765 C 102.809474 25.967952 103.103633 25.679045 103.686699 25.679045 Z M 150.468576 -0.889867 C 151.634709 -0.889867 152.606486 -0.501156 153.38916 0.281518 C 154.182341 1.064193 154.576304 2.020211 154.576304 3.154827 L 154.576304 39.010777 C 154.576304 40.140139 154.182341 41.106664 153.38916 41.905097 C 152.606486 42.708783 151.634709 43.107999 150.468576 43.107999 L 143.582091 43.107999 C 142.452728 43.107999 141.496709 42.708783 140.714035 41.905097 C 139.93136 41.106664 139.537397 40.140139 139.537397 39.010777 L 139.537397 29.335028 C 139.537397 29.004099 139.353547 28.767721 138.9911 28.625894 L 135.224807 28.625894 C 134.862361 28.736203 134.657499 28.972582 134.615477 29.335028 L 134.615477 39.010777 C 134.615477 40.140139 134.221513 41.106664 133.438838 41.905097 C 132.656164 42.708783 131.700145 43.107999 130.570783 43.107999 L 123.684297 43.107999 C 122.554934 43.107999 121.598916 42.708783 120.816241 41.905097 C 120.033567 41.106664 119.639603 40.140139 119.639603 39.010777 L 119.639603 3.154827 C 119.639603 2.020211 120.033567 1.064193 120.816241 0.281518 C 121.598916 -0.501156 122.554934 -0.889867 123.684297 -0.889867 L 130.570783 -0.889867 C 131.700145 -0.889867 132.656164 -0.501156 133.438838 0.281518 C 134.221513 1.064193 134.615477 2.020211 134.615477 3.154827 L 134.615477 12.935632 C 134.694269 13.298079 134.899131 13.518699 135.224807 13.586986 L 138.9911 13.586986 C 139.353547 13.518699 139.537397 13.28232 139.537397 12.883104 L 139.537397 3.154827 C 139.537397 2.020211 139.93136 1.064193 140.714035 0.281518 C 141.496709 -0.501156 142.452728 -0.889867 143.582091 -0.889867 Z M 173.423528 11.133905 C 173.318471 11.133905 173.22392 11.191686 173.145127 11.307249 C 173.07684 11.412306 173.04007 11.501605 173.04007 11.575144 L 173.04007 15.178599 C 173.04007 15.399219 173.166138 15.509529 173.423528 15.509529 L 181.460388 15.509529 C 182.190534 15.509529 182.805117 15.761665 183.314643 16.271192 C 183.829423 16.775465 184.086812 17.395302 184.086812 18.125448 L 184.086812 24.092685 C 184.086812 24.817578 183.829423 25.437414 183.314643 25.94694 C 182.805117 26.451214 182.190534 26.708604 181.460388 26.708604 L 173.423528 26.708604 C 173.166138 26.708604 173.04007 26.834672 173.04007 27.092062 L 173.04007 30.590459 C 173.04007 30.847849 173.166138 30.973917 173.423528 30.973917 L 184.517546 30.973917 C 185.326485 30.973917 186.009355 31.268077 186.57141 31.856396 C 187.138718 32.434209 187.422372 33.122333 187.422372 33.926019 L 187.422372 40.050841 C 187.422372 40.849274 187.138718 41.526892 186.57141 42.078441 C 186.009355 42.619484 185.326485 42.892633 184.517546 42.892633 L 162.161419 42.892633 C 161.032056 42.892633 160.086543 42.467152 159.319627 41.610937 C 158.557964 40.74947 158.174506 39.51505 158.174506 37.918184 L 158.174506 2.340635 C 158.174506 1.715546 158.557964 1.05894 159.319627 0.365564 C 160.086543 -0.327812 161.032056 -0.679753 162.161419 -0.679753 L 184.517546 -0.679753 C 185.326485 -0.679753 186.009355 -0.401352 186.57141 0.150197 C 187.138718 0.69124 187.422372 1.363605 187.422372 2.167291 L 187.422372 8.292114 C 187.422372 9.053777 187.138718 9.720889 186.57141 10.293449 C 186.009355 10.850251 185.326485 11.133905 184.517546 11.133905 Z M 216.334055 28.242436 C 217.353108 28.242436 218.214575 28.625894 218.92371 29.387557 C 219.638097 30.154473 219.995291 31.047457 219.995291 32.071763 L 219.995291 39.399488 C 219.995291 40.376518 219.638097 41.222226 218.92371 41.931361 C 218.214575 42.645749 217.353108 42.99769 216.334055 42.99769 L 194.639787 42.99769 C 193.463148 42.99769 192.564911 42.645749 191.939822 41.931361 C 191.330492 41.222226 191.020574 40.376518 191.020574 39.399488 L 191.020574 3.701123 C 191.020574 2.534991 191.393526 1.505432 192.144683 0.617701 C 192.890588 -0.280537 193.846606 -0.732282 195.012739 -0.732282 L 201.352928 -0.732282 C 202.482291 -0.732282 203.480332 -0.280537 204.352305 0.617701 C 205.234784 1.505432 205.676023 2.534991 205.676023 3.701123 L 205.676023 28.242436 Z M 216.334055 28.242436 " stroke="#b2edef" stroke-width="0.888331" stroke-opacity="1" stroke-miterlimit="4"/></g></svg>